<svg id="Layer_1" data-name="Layer 1" xmlns="http://www.w3.org/2000/svg" xmlns:xlink="http://www.w3.org/1999/xlink" viewBox="0 0 600 600"><defs><style>.cls-1{fill:#fff;}.cls-2{fill:#515151;}.cls-3{fill:#0b5567;}.cls-4{fill:#ccc;}.cls-5{fill:#848484;}.cls-6{fill:#b5b5b5;}.cls-7{fill:#efefef;}.cls-8{fill:#8c8c8c;}.cls-9{fill:url(#linear-gradient);}.cls-10{fill:url(#linear-gradient-2);}.cls-11{fill:#5e5e5e;}.cls-12{fill:url(#linear-gradient-3);}.cls-13{fill:url(#linear-gradient-4);}.cls-14{fill:url(#linear-gradient-5);}.cls-15{fill:url(#linear-gradient-6);}.cls-16{fill:url(#linear-gradient-7);}.cls-17{fill:url(#linear-gradient-8);}.cls-18{fill:url(#linear-gradient-9);}.cls-19{fill:url(#linear-gradient-10);}.cls-20{fill:url(#linear-gradient-11);}.cls-21{fill:url(#linear-gradient-12);}.cls-22{fill:#9b9b9b;}.cls-23{fill:#727272;}</style><linearGradient id="linear-gradient" x1="-820" y1="-1972.15" x2="-819" y2="-1972.15" gradientTransform="matrix(0.56, 0, 0, -0.56, 802.98, -904.09)" gradientUnits="userSpaceOnUse"><stop offset="0" stop-color="#1291b0"/><stop offset="0.13" stop-color="#1291b0"/><stop offset="0.19" stop-color="#1399b9"/><stop offset="0.32" stop-color="#14a2c5"/><stop offset="0.5" stop-color="#15a7cc"/><stop offset="1" stop-color="#15a9ce"/></linearGradient><linearGradient id="linear-gradient-2" y1="-1972.15" y2="-1972.15" gradientTransform="matrix(0.6, 0, 0, -0.6, 836.46, -980.26)" xlink:href="#linear-gradient"/><linearGradient id="linear-gradient-3" y1="-1972.15" y2="-1972.15" gradientTransform="matrix(0.08, 0, 0, -0.08, 411.52, 48.95)" xlink:href="#linear-gradient"/><linearGradient id="linear-gradient-4" y1="-1972.15" y2="-1972.15" gradientTransform="matrix(1.01, 0, 0, -1.01, 1177.01, -1778.99)" xlink:href="#linear-gradient"/><linearGradient id="linear-gradient-5" y1="-1972.15" y2="-1972.15" gradientTransform="matrix(0.61, 0, 0, -0.61, 852.87, -1028.75)" xlink:href="#linear-gradient"/><linearGradient id="linear-gradient-6" y1="-1972.15" y2="-1972.15" gradientTransform="matrix(0.71, 0, 0, -0.71, 951.97, -1233.18)" xlink:href="#linear-gradient"/><linearGradient id="linear-gradient-7" y1="-1972.15" y2="-1972.15" gradientTransform="matrix(0.9, 0.69, 0.69, -0.9, 2439.28, -1005.05)" xlink:href="#linear-gradient"/><linearGradient id="linear-gradient-8" y1="-1972.15" y2="-1972.15" gradientTransform="matrix(1.52, 1.17, 1.17, -1.52, 3909.23, -1835)" xlink:href="#linear-gradient"/><linearGradient id="linear-gradient-9" x1="-820" y1="-1972.02" x2="-819" y2="-1972.02" gradientTransform="matrix(2.58, 0.88, 0.88, -2.58, 4207.92, -4246.88)" gradientUnits="userSpaceOnUse"><stop offset="0" stop-color="#95deef"/><stop offset="0.13" stop-color="#95deef"/><stop offset="1" stop-color="#8ad4e6"/></linearGradient><linearGradient id="linear-gradient-10" x1="-820" y1="-1972.15" x2="-819" y2="-1972.15" gradientTransform="matrix(2.58, 0.88, 0.88, -2.58, 4207.92, -4246.88)" gradientUnits="userSpaceOnUse"><stop offset="0" stop-color="#8dd6e7"/><stop offset="0.13" stop-color="#8dd6e7"/><stop offset="1" stop-color="#82ccde"/></linearGradient><linearGradient id="linear-gradient-11" y1="-1972.35" y2="-1972.35" gradientTransform="matrix(0.13, 0.04, 0.04, -0.13, 533.72, -32.48)" xlink:href="#linear-gradient-9"/><linearGradient id="linear-gradient-12" x1="-820" y1="-1971.94" x2="-819" y2="-1971.94" gradientTransform="matrix(0.13, 0.04, 0.04, -0.13, 533.72, -32.48)" gradientUnits="userSpaceOnUse"><stop offset="0" stop-color="#7bc5d6"/><stop offset="0.13" stop-color="#7bc5d6"/><stop offset="1" stop-color="#70bacd"/></linearGradient></defs><path class="cls-1" d="M391.13,435.74a5.36,5.36,0,0,1,8.5,0,8.78,8.78,0,0,1,1.62,5.51,9.66,9.66,0,0,1-1.59,5.91,5.4,5.4,0,0,1-8.54,0,8.81,8.81,0,0,1-1.6-5.52A9.59,9.59,0,0,1,391.13,435.74ZM386,441.53a11.18,11.18,0,0,0,2.61,7.73,8.68,8.68,0,0,0,6.81,2.92,9.07,9.07,0,0,0,4.93-1.34,8.75,8.75,0,0,0,3.3-3.73,12.17,12.17,0,0,0,1.16-5.41v-.25a11.24,11.24,0,0,0-2.61-7.77,8.68,8.68,0,0,0-6.82-2.92,8.77,8.77,0,0,0-8.19,5.06,12.23,12.23,0,0,0-1.19,5.46Zm-11.92-14.44a2.1,2.1,0,0,0,3.66-1.43,2.05,2.05,0,0,0-.54-1.45,2.33,2.33,0,0,0-3.12,0,2.09,2.09,0,0,0-.53,1.45A2,2,0,0,0,374.05,427.09Zm3.29,4.05h-3.53V451.8h3.53Zm-19.26-5v5h-3.76v2.73h3.76v12.81a6.17,6.17,0,0,0,1.2,4.07,4.43,4.43,0,0,0,3.57,1.43,10.49,10.49,0,0,0,2.72-.38V449a8.16,8.16,0,0,1-1.68.23,2.15,2.15,0,0,1-1.76-.62,2.81,2.81,0,0,1-.52-1.86V433.87h3.86v-2.73h-3.86v-5Zm-22.4,22a3.23,3.23,0,0,1-1.1-2.6q0-3.79,6.49-3.8h2.77V446a5.28,5.28,0,0,1-2.16,2.24,6.22,6.22,0,0,1-3.15.86A4.29,4.29,0,0,1,335.68,448.17Zm12.42,3.63v-.31a11.49,11.49,0,0,1-.73-4.52v-9.51a6.44,6.44,0,0,0-2.1-4.92,8.16,8.16,0,0,0-5.59-1.78,10,10,0,0,0-4.14.84,7.52,7.52,0,0,0-3,2.28,4.87,4.87,0,0,0-1.1,3H335a2.78,2.78,0,0,1,1.28-2.31,5.13,5.13,0,0,1,3.17-1,4.46,4.46,0,0,1,3.26,1.1,4,4,0,0,1,1.11,2.95v1.62H340.4a11.54,11.54,0,0,0-6.9,1.79,5.83,5.83,0,0,0-2.46,5,5.6,5.6,0,0,0,2,4.38,7.32,7.32,0,0,0,5,1.73,7.9,7.9,0,0,0,5.89-2.56,7.35,7.35,0,0,0,.49,2.18Zm-24.92-18.16v-2.5H307.52v2.92h11.23l-11.4,15.14v2.6h16.4v-2.88H311.67Zm-27.69-6.55a2,2,0,0,0,1.55.57,1.9,1.9,0,0,0,2.1-2,2.09,2.09,0,0,0-.53-1.45,2,2,0,0,0-1.57-.6,1.94,1.94,0,0,0-1.55.6,2.09,2.09,0,0,0-.53,1.45A2,2,0,0,0,295.49,427.09Zm3.29,4.05h-3.53V451.8h3.53Zm-13.4-8.67h-3.53V451.8h3.53Zm-25,25.7a3.21,3.21,0,0,1-1.11-2.6q0-3.79,6.49-3.8h2.77V446a5.22,5.22,0,0,1-2.16,2.24,6.22,6.22,0,0,1-3.15.86A4.25,4.25,0,0,1,260.41,448.17Zm12.41,3.63v-.31a11.49,11.49,0,0,1-.73-4.52v-9.51a6.44,6.44,0,0,0-2.1-4.92,8.16,8.16,0,0,0-5.59-1.78,10,10,0,0,0-4.14.84,7.59,7.59,0,0,0-3,2.28,4.86,4.86,0,0,0-1.09,3h3.55a2.78,2.78,0,0,1,1.28-2.31,5.13,5.13,0,0,1,3.17-1,4.46,4.46,0,0,1,3.26,1.1,4,4,0,0,1,1.11,2.95v1.62h-3.44a11.56,11.56,0,0,0-6.9,1.79,5.82,5.82,0,0,0-2.45,5,5.59,5.59,0,0,0,2,4.38,7.33,7.33,0,0,0,5,1.73,7.89,7.89,0,0,0,5.88-2.56,7.35,7.35,0,0,0,.49,2.18ZM243.5,427.09a2.1,2.1,0,0,0,3.66-1.43,2.05,2.05,0,0,0-.54-1.45,2.33,2.33,0,0,0-3.12,0,2.08,2.08,0,0,0-.52,1.45A2,2,0,0,0,243.5,427.09Zm3.29,4.05h-3.53V451.8h3.53Zm-11-.12a3.62,3.62,0,0,0-1.57-.26,5.49,5.49,0,0,0-4.92,2.76l-.06-2.38h-3.44V451.8h3.53V437.13a4.66,4.66,0,0,1,4.72-3,10.48,10.48,0,0,1,1.74.14Zm-23,4.12a6.7,6.7,0,0,1,1.45,4.17v.27H203.93a7.59,7.59,0,0,1,1.8-4.37,4.71,4.71,0,0,1,3.59-1.55A4.43,4.43,0,0,1,212.83,435.14Zm4.72,13.05-2.16-1.68a8,8,0,0,1-2.27,2,6.18,6.18,0,0,1-3.17.77,5.63,5.63,0,0,1-4.35-1.88,7.35,7.35,0,0,1-1.78-4.94h14V441q0-5-2.23-7.6a7.74,7.74,0,0,0-6.26-2.65,8.26,8.26,0,0,0-4.58,1.36,9.18,9.18,0,0,0-3.28,3.78,12.44,12.44,0,0,0-1.18,5.49V442a10.23,10.23,0,0,0,2.64,7.38,9,9,0,0,0,6.84,2.76A8.68,8.68,0,0,0,217.55,448.19Zm-29.63.3a5.68,5.68,0,0,1-3.21.81,5.57,5.57,0,0,1-3.51-1,3.68,3.68,0,0,1-1.42-2.82h-3.53a5.92,5.92,0,0,0,1.08,3.41,7.09,7.09,0,0,0,3,2.45,10.38,10.38,0,0,0,4.4.88,9.29,9.29,0,0,0,5.74-1.67,5.27,5.27,0,0,0,2.22-4.44,4.85,4.85,0,0,0-.79-2.82,6.17,6.17,0,0,0-2.44-2,19.07,19.07,0,0,0-4.28-1.42,12,12,0,0,1-3.66-1.24,2.12,2.12,0,0,1-1-1.93,2.65,2.65,0,0,1,1.08-2.19,4.86,4.86,0,0,1,3-.84,4.6,4.6,0,0,1,3.1,1,3.16,3.16,0,0,1,1.24,2.5h3.55a5.76,5.76,0,0,0-2.19-4.64,8.64,8.64,0,0,0-5.7-1.81,8.38,8.38,0,0,0-5.49,1.75,5.38,5.38,0,0,0-2.15,4.3,4.55,4.55,0,0,0,.76,2.63,6,6,0,0,0,2.33,1.91,17.44,17.44,0,0,0,4.26,1.38,10.58,10.58,0,0,1,3.76,1.36,2.61,2.61,0,0,1,1.08,2.23A2.52,2.52,0,0,1,187.92,448.49Z"/><path class="cls-1" d="M413.12,431.14V451.8h3.53V437.08a6.21,6.21,0,0,1,2-2.41,5.1,5.1,0,0,1,3-.92,4.11,4.11,0,0,1,3.12,1.07,4.76,4.76,0,0,1,1,3.31V451.8h3.53V438.15q-.06-7.39-6.6-7.39a7.54,7.54,0,0,0-6.19,3l-.12-2.59Z"/><path class="cls-1" d="M366.25,472.63a3.52,3.52,0,0,0-1.56-.27,5.52,5.52,0,0,0-4.93,2.77l-.05-2.39h-3.44v20.67h3.53V478.74a4.66,4.66,0,0,1,4.72-3,11.6,11.6,0,0,1,1.73.13Zm-23,4.11a6.77,6.77,0,0,1,1.45,4.18v.26H334.39a7.62,7.62,0,0,1,1.79-4.36,4.72,4.72,0,0,1,3.59-1.56A4.47,4.47,0,0,1,343.29,476.74ZM348,489.8l-2.15-1.68a7.94,7.94,0,0,1-2.28,2,6.12,6.12,0,0,1-3.17.76,5.59,5.59,0,0,1-4.34-1.88,7.33,7.33,0,0,1-1.79-4.93h14v-1.47q0-5-2.23-7.6a7.75,7.75,0,0,0-6.27-2.66,8.27,8.27,0,0,0-4.57,1.37,9.11,9.11,0,0,0-3.28,3.78,12.3,12.3,0,0,0-1.18,5.49v.65a10.23,10.23,0,0,0,2.64,7.38,9,9,0,0,0,6.83,2.76A8.68,8.68,0,0,0,348,489.8Zm-29.79-.91a4.79,4.79,0,0,1-4,2,5.2,5.2,0,0,1-4.85-2.82v-9.87a5.19,5.19,0,0,1,4.81-2.85,4.83,4.83,0,0,1,4.09,2,9.15,9.15,0,0,1,1.49,5.52Q319.71,486.88,318.21,488.89Zm5-5.91q0-5-2.17-7.81a7,7,0,0,0-5.89-2.81,7.24,7.24,0,0,0-6,2.68l-.18-2.3h-3.22v28.61h3.53v-10a7.58,7.58,0,0,0,5.92,2.39,6.89,6.89,0,0,0,5.84-2.89,12.35,12.35,0,0,0,2.16-7.6Zm-27-18.91h-3.53v29.34h3.53ZM279.4,476.74a6.71,6.71,0,0,1,1.45,4.18v.26H270.51a7.49,7.49,0,0,1,1.79-4.36,4.7,4.7,0,0,1,3.59-1.56A4.44,4.44,0,0,1,279.4,476.74Zm4.72,13.06L282,488.12a7.91,7.91,0,0,1-2.27,2,6.15,6.15,0,0,1-3.17.76,5.58,5.58,0,0,1-4.34-1.88,7.33,7.33,0,0,1-1.79-4.93h14v-1.47q0-5-2.24-7.6a7.73,7.73,0,0,0-6.26-2.66,8.24,8.24,0,0,0-4.57,1.37,9.2,9.2,0,0,0-3.29,3.78,12.44,12.44,0,0,0-1.17,5.49v.65a10.27,10.27,0,0,0,2.63,7.38,9,9,0,0,0,6.84,2.76A8.68,8.68,0,0,0,284.12,489.8Zm-38.28-25.73H242.3v29.34h3.54V478.68a6.23,6.23,0,0,1,2-2.4,5.12,5.12,0,0,1,3-.92,4.11,4.11,0,0,1,3.12,1.07,4.72,4.72,0,0,1,1,3.3v13.68h3.54V479.75q-.06-7.38-6.61-7.39a7.48,7.48,0,0,0-6.11,2.89Z"/><path class="cls-1" d="M411.48,389.39a16.54,16.54,0,0,1-11.92,5,16.11,16.11,0,0,1-11.91-5,19.23,19.23,0,0,1-4.87-13.19,18.81,18.81,0,0,1,4.87-13.2,15.44,15.44,0,0,1,11.91-5.25A15.84,15.84,0,0,1,411.48,363a18.89,18.89,0,0,1,5,13.2A19.32,19.32,0,0,1,411.48,389.39ZM430.06,351a6.87,6.87,0,0,0-6.79-6.92,7,7,0,0,0-6.67,5.64,29.17,29.17,0,0,0-17-5.64,29.48,29.48,0,0,0-21.77,9.61,32.34,32.34,0,0,0-8.72,22.55,32.81,32.81,0,0,0,8.72,22.55,29.75,29.75,0,0,0,21.77,9.35,29.06,29.06,0,0,0,17-5.51,7,7,0,0,0,6.67,5.51,6.84,6.84,0,0,0,6.79-6.79V351ZM318.85,408.1a7.13,7.13,0,0,0,7.17-7.05V389.78l7.05-7,18.83,22.81a6.81,6.81,0,0,0,5.38,2.56,6.71,6.71,0,0,0,4.49-1.67,7.1,7.1,0,0,0,1-10l-19.73-23.7,19.22-19.22a7,7,0,0,0,0-10,7.19,7.19,0,0,0-10,0L326,369.79V325.47a7.13,7.13,0,0,0-7.17-7.05,7,7,0,0,0-7.05,7.05v75.58A7,7,0,0,0,318.85,408.1Zm-65.34,0a7.13,7.13,0,0,0,7.17-7.05V389.78l7.05-7,18.83,22.81a6.81,6.81,0,0,0,5.38,2.56,6.71,6.71,0,0,0,4.49-1.67,7.1,7.1,0,0,0,1-10l-19.73-23.7,19.22-19.22a7,7,0,0,0,0-10,7.19,7.19,0,0,0-10,0l-26.27,26.26V325.47a7.13,7.13,0,0,0-7.17-7.05,7,7,0,0,0-7,7.05v75.58A7,7,0,0,0,253.51,408.1Zm-44.33-18.71a16.54,16.54,0,0,1-11.92,5,16.11,16.11,0,0,1-11.91-5,19.23,19.23,0,0,1-4.87-13.19,18.81,18.81,0,0,1,4.87-13.2,15.44,15.44,0,0,1,11.91-5.25A15.84,15.84,0,0,1,209.18,363a18.89,18.89,0,0,1,5,13.2A19.32,19.32,0,0,1,209.18,389.39ZM227.76,351A6.87,6.87,0,0,0,221,344a7,7,0,0,0-6.67,5.64,29.17,29.17,0,0,0-17-5.64,29.48,29.48,0,0,0-21.77,9.61,32.34,32.34,0,0,0-8.72,22.55,32.81,32.81,0,0,0,8.72,22.55,29.75,29.75,0,0,0,21.77,9.35,29.06,29.06,0,0,0,17-5.51A7,7,0,0,0,221,408.1a6.84,6.84,0,0,0,6.79-6.79V351Z"/><path class="cls-2" d="M373.54,280.11c-30.71-15.88-68.75-15.81-98.48-11.92l-.66.09-3.52.5c-4.19.61-8.2,1.29-12,2-1.44.27-2.84.55-4.21.83s-2.92.61-4.31.92c31.24-27.5,36-32.33,36-32.33,5.7-5.26,14.64-10,22.32-11.06.87-.12,1.78-.24,2.73-.34,9.18-.95,23.53-.3,33.27,2.53l.07,0,.11,0a44.33,44.33,0,0,1,12.74,6.4c2.18,1.58,5.87,4.65,7.52,6-.11.39-.19.78-.27,1.18a35.9,35.9,0,0,0-.73,5.29v.06c0,.42,0,.84-.05,1.25v.8c0,.4,0,.85,0,1.34,0,.18,0,.41,0,.68v.18c0,.22,0,.44,0,.66s0,.38,0,.5v.13c0,.37.07.74.12,1.1v.11a5.58,5.58,0,0,0,.08.57c0,.36.1.72.17,1.08a7.85,7.85,0,0,0,.14.78c.08.41.16.81.25,1.19a10.59,10.59,0,0,0,.28,1.12c.09.36.19.69.28,1,.14.48.28.92.43,1.35.22.68.44,1.27.68,1.85.1.25.22.5.35.75l1.76,3.58C369.89,272.7,372.05,277.1,373.54,280.11Z"/><rect class="cls-3" x="282.33" y="233.65" width="0.01" height="0.01"/><polygon class="cls-3" points="282.36 233.64 282.35 233.65 282.35 233.64 282.36 233.64"/><path class="cls-4" d="M340.84,179.52c-1.84-3.72-3.69-7.51-5.47-11.13l-1.12-2.29-.89-1.79c-.37-.74-.71-1.47-1.07-2.17-1.89-3.85-3.58-7.27-4.89-9.93-6-12.14-9.45-22.43-1.94-33.63a17.83,17.83,0,0,1,2.39-2.93c.32-.33.65-.63,1-.92l.47-.39.17-.14.56-.43a29.66,29.66,0,0,1,7.32-3.71l-.23,0h-.06c-5.23,1.21-15.36,9-18.76,11.82L206.6,215.48c-4.79,4-1.5,11.52,4.76,11.52h55.45c13.46,0,26.48-3.54,36.68-12.34l32.76-28.25,5.61-4.84C341.53,180.9,341.19,180.21,340.84,179.52Z"/><path class="cls-4" d="M278.75,235.56s-58.24,50.81-64.47,54.25a66,66,0,0,1-11,5l-.61.19c-.42.14-.85.27-1.26.38l-.53.14-.82.2-.83.19a28.66,28.66,0,0,1-4.71.53h-1.69A29.8,29.8,0,0,1,174.14,244l.65-.55h0l2.37-1.7a37.6,37.6,0,0,1,19.05-6.19h82.53Z"/><path class="cls-2" d="M342,223.26a2.15,2.15,0,0,1-.6-.1c-8.65-2.38-17.87-2.5-24.55-2.11l-1.11.07-1,.07c-1.39.11-2.63.24-3.68.36l-.9.11c-.45.06-.86.11-1.21.17l-.46.06-1.19.19h-.1l0,0c.27-.25,22.21-19,24.44-21l0,0a2.31,2.31,0,0,1,1.42-.56,2.43,2.43,0,0,1,2,.78,2.78,2.78,0,0,1,.4.59c.5,1,1.18,2.4,2,4q.45.88.93,1.86c2,4.07,4.38,8.9,5.93,12A2.41,2.41,0,0,1,342,223.26Z"/><path class="cls-2" d="M414.82,219.32l-.06,0c-.6-.25-1.23-.48-2-.73-.31-.11-.63-.22-1-.32l-.22-.06-.16-.05-.59-.17-.82-.2-.18,0-.1,0h-.05l-.81-.2h-.05c-.83-.19-1.64-.33-2.44-.45a37,37,0,0,0-5.46-.41h-1.45c-.32,0-.76,0-1.28.07s-.89.05-1.31.1a37.69,37.69,0,0,0-16,5.48,34.31,34.31,0,0,0-3.37,2.39c-.3.23-.72.57-1.15,1a34.76,34.76,0,0,0-8.28,10.43l-.85-.66a60,60,0,0,1-17.16-20.95l-4-8.16,0-.07-.16-.33-.24-.51,0-.12a27.1,27.1,0,0,1-.14-20.09,1.53,1.53,0,0,1,.11-.27c.1-.28.22-.57.34-.84s.21-.51.34-.76.2-.45.32-.69l.22-.43q.44-.84.93-1.65c.31-.54.66-1.06,1-1.57.18-.27.37-.54.57-.79s.38-.52.59-.78.25-.31.41-.49l.36-.43.12-.14.21-.24.08-.08.07-.08v0c.22-.24.45-.48.67-.7a26,26,0,0,1,2.26-2.08c.17-.12.32-.26.48-.38l.49-.37c.32-.24.67-.47,1-.71l.56-.38,1.18-.73c.67-.37,1.35-.73,2.06-1a29.54,29.54,0,0,1,12.93-2.62c.38,0,.79,0,1.19,0,.65,0,1.29.1,1.93.17a6.5,6.5,0,0,1,.77.12l.83.14c.54.1,1.08.21,1.62.34a26.9,26.9,0,0,1,10.26,4.88c.25.19.51.4.76.63a24.38,24.38,0,0,1,3.92,4.38l0,0c.31.44.58.88.85,1.33Z"/><path class="cls-5" d="M436.2,270.91c-.06.93-.17,1.84-.31,2.74s-.34,1.77-.57,2.64c-.12.43-.24.86-.37,1.28s-.21.65-.33,1-.17.48-.27.71-.11.28-.17.42-.17.43-.26.64-.29.64-.44.95c-.38.79-.79,1.55-1.24,2.29s-.94,1.47-1.45,2.16c-.26.35-.52.69-.8,1a12.81,12.81,0,0,1-.84,1c-.28.32-.57.64-.88.95-.45.46-.92.91-1.39,1.33s-1,.88-1.57,1.29l-.78.57-.23.16c-.33.24-.66.47-1,.68l-.09.06q-.51.33-1,.63c-.36.21-.72.4-1.09.59L421,294c-.37.19-.74.37-1.12.54l-.72.31-.63.26-1.07.4a26.18,26.18,0,0,1-2.52.75l-.91.2-.22,0-.3.07-.93.16h-.07l-.44.06-.78.1-.44,0c-.44,0-.89.07-1.34.09s-.79,0-1.19,0q-.92,0-1.86-.06a21.84,21.84,0,0,1-2.3-.15h-.06a24.94,24.94,0,0,1-15.34-7l0,0a25.09,25.09,0,0,1-4.47-6.11c-.63-1.22-2.11-4.31-2.71-5.49-1.37-2.79-4.23-8.6-5.59-11.34l-1.84-3.75,0-.06a14.33,14.33,0,0,1-.51-1.38c-.23-.66-.42-1.31-.6-2a4.8,4.8,0,0,1-.15-.63c-.1-.39-.18-.78-.25-1.18a4.37,4.37,0,0,1-.09-.5,8.84,8.84,0,0,1-.14-.92l0-.17c0-.34-.09-.7-.12-1.06,0-.15,0-.3,0-.45,0-.3,0-.6-.06-.91,0-.11,0-.22,0-.33,0-.37,0-.75,0-1.14s0-1.06.06-1.6a29.36,29.36,0,0,1,.59-4.22,10.2,10.2,0,0,1,.27-1.09c.08-.36.19-.7.29-1a26.8,26.8,0,0,1,8.43-12.87,10,10,0,0,1,.79-.67,26.68,26.68,0,0,1,2.63-1.87,29.51,29.51,0,0,1,12.64-4.31c.35,0,.69-.06,1.05-.07a9.69,9.69,0,0,1,1.06-.06h1.08a28.08,28.08,0,0,1,4.29.33,25.69,25.69,0,0,1,2.56.5l.12,0,.36.09a3.74,3.74,0,0,1,.48.12,1.81,1.81,0,0,1,.31.09,2,2,0,0,1,.3.09l.12,0c.22.06.45.13.66.21.54.18,1.07.37,1.6.59a18.26,18.26,0,0,1,1.73.8c.26.12.51.25.77.4l.09,0c.24.13.47.27.7.42l.1,0a23.15,23.15,0,0,1,2.19,1.54c.21.17.42.33.63.51l.06,0,.06.06.12.11c.31.25.62.54.91.81a3.82,3.82,0,0,1,.36.34l.51.51a28.35,28.35,0,0,1,4,5.52l2,4,.7,1.43,1.16,2.36c1.56,3.17,3.36,6.79,4.56,9.22A28.33,28.33,0,0,1,436.2,270.91Z"/><polygon class="cls-1" points="404.09 296.87 404.11 296.87 404.14 296.86 404.09 296.87"/><path class="cls-6" d="M340.84,179.52c-1.84-3.72-3.69-7.51-5.47-11.13l-1.12-2.29-.89-1.79c-.37-.74-.71-1.47-1.07-2.17-1.89-3.85-3.58-7.27-4.89-9.93-3.66-7.38-6.36-14.07-6.23-20.7a23.46,23.46,0,0,1,4.29-12.93,17.33,17.33,0,0,1,2.39-2.93c.13-.14.27-.27.41-.4s.47-.43.71-.63.34-.29.51-.42.37-.29.56-.43a29.66,29.66,0,0,1,7.32-3.71l-.29.06-.08,0c-5.26,1.27-15.3,9-18.68,11.8l-20.19,16.91,37.32,48.26.81-.7.13-.11,5.48-4.73C341.53,180.9,341.19,180.21,340.84,179.52Z"/><path class="cls-4" d="M395.1,179.29l-.18-.3c-.27-.45-.54-.89-.85-1.33l0,0a24.38,24.38,0,0,0-3.92-4.38c-.25-.23-.51-.44-.76-.63-.43-.36-.87-.69-1.32-1-.22-.15-.46-.32-.7-.45a10.57,10.57,0,0,0-.91-.56,27.08,27.08,0,0,0-7.33-2.87c-.54-.13-1.08-.25-1.62-.34l-.84-.14c-.34-.06-.68-.1-1-.15-.55-.06-1.1-.12-1.66-.14-.4,0-.81,0-1.19,0a29.54,29.54,0,0,0-12.93,2.62,17.7,17.7,0,0,0-1.94,1l-.95.56-.89.6-1,.72c-.16.1-.32.24-.49.37s-.31.26-.48.38a26,26,0,0,0-2.26,2.08c-.22.22-.45.46-.67.7v0c-.44.47-.86,1-1.25,1.46-.21.26-.4.52-.59.78s-.39.52-.57.79c-.36.51-.71,1-1,1.57s-.64,1.09-.93,1.65l-.22.43c-.12.24-.23.47-.32.69s-.24.51-.34.76-.24.56-.34.84a1.53,1.53,0,0,0-.11.27,27.1,27.1,0,0,0,.14,20.09h0l0-.08,0-.09-.31-.61-.06-.11-.06-.14-1.24-2.52c-.14-.27-.27-.52-.39-.79l-.42-.85-.27-.54a1.68,1.68,0,0,1-.15-.3l-.75-1.53-.13-.26-.06-.14-.08-.12,0-.07-.07-.17-.36-.72-.08-.15-.21-.43-.76-1.54-.1-.21-.35-.7-.39-.8v0l-.31-.61-.29-.58L337.51,189l-1-2c-.33-.67-.67-1.36-1-2.05-1.84-3.72-3.69-7.51-5.47-11.13l-1.12-2.29-.89-1.79c-.37-.74-.71-1.47-1.07-2.17-1.89-3.85-3.58-7.27-4.89-9.93a37.8,37.8,0,0,1,2.4-37.8,23.76,23.76,0,0,1,11.76-9.38l.05,0a36.64,36.64,0,0,1,5.88-1.39c8.87-1.3,17.69,1,22.34,8.39l2,4.1,2.61,5.26,1.66,3.34,1.7,3.43c.29.59.58,1.19.88,1.79l1.82,3.7.95,1.9,1.91,3.86c2.26,4.57,4.58,9.27,6.84,13.82.48,1,.95,1.94,1.43,2.9s.95,1.91,1.41,2.86l1,2.08c.3.59.58,1.19.88,1.78l0,0,.75,1.52.64,1.32L392,173l.46.93c.15.31.29.61.44.91s.21.4.3.59.19.4.28.59.29.58.43.86l.42.84c.13.28.27.55.4.82s.26.53.38.79"/><path class="cls-7" d="M357.44,111c-1-.08-2-.13-3-.12l-1.46.06-1,.07h-.08l-.67.06c-.48,0-1,.11-1.44.19-.17,0-.33,0-.5.06l-.83.15h-.06a23.58,23.58,0,0,0-6.57,2.51c-.21.11-.41.23-.61.35a6.53,6.53,0,0,0-.56.35c-.27.16-.54.35-.79.53l-.46.33a23.48,23.48,0,0,0-3.93,3.63,37.75,37.75,0,0,0-7.52,37.11l3.49,10.51c.26.74.5,1.51.77,2.3.2.61.42,1.25.63,1.89s.53,1.6.8,2.42c1.27,3.83,2.59,7.84,3.91,11.77.18.54.37,1.09.54,1.62.07.19.13.37.19.55l.71,2.15.07.21,0,0,.68,2.09.21.62.22.65v0l.28.84.25.74.07.23.54,1.61.15.47,0,.11-.07-.16-.36-.73-.08-.14-.21-.43-.76-1.54-.1-.21-.35-.7-.39-.8v0l-.31-.62-.29-.57-1-2,0,0-.1-.19-1-2c-.08-.17-.17-.34-.26-.52-.24-.5-.5-1-.76-1.53-1.84-3.72-3.69-7.51-5.47-11.13l-1.12-2.29-.89-1.79c-.37-.74-.71-1.47-1.07-2.17-1.89-3.85-3.58-7.27-4.89-9.93a37.8,37.8,0,0,1,2.4-37.8,23.39,23.39,0,0,1,3.4-4.12c.13-.14.27-.27.41-.4s.47-.43.71-.63.34-.29.51-.42.37-.29.56-.43a23.55,23.55,0,0,1,6.17-3.38l.05,0,.81-.25a2.9,2.9,0,0,1,.48-.14c.47-.14.94-.27,1.41-.37l.65-.15h.08l1-.22,1.44-.25c5.43-.79,10.85-.25,15.3,2"/><path class="cls-8" d="M409.71,226c-.17,0-.35,0-.52-.06l-.8-.07-.28,0a7.4,7.4,0,0,0-1.06,0c-.36,0-.7,0-1.05,0a28.32,28.32,0,0,0-13,3.39,26.25,26.25,0,0,0-2.81,1.74,10.49,10.49,0,0,0-.85.64,28.86,28.86,0,0,0-9.7,12.88c-.13.36-.28.71-.39,1.08a11.72,11.72,0,0,0-.38,1.14,34,34,0,0,0-1,4.43c-.08.57-.15,1.14-.22,1.69s-.08.82-.09,1.22c0,.12,0,.23,0,.35,0,.33,0,.65,0,1,0,.16,0,.33,0,.49,0,.38,0,.77,0,1.13v.19c0,.33,0,.68,0,1a3.35,3.35,0,0,0,0,.54c0,.43.06.85.12,1.28a5.52,5.52,0,0,0,.09.68c.11.72.24,1.43.4,2.15a13.46,13.46,0,0,0,.37,1.52l0,.07,1.45,4.16c1.08,3,3.34,9.49,4.42,12.59.48,1.31,1.64,4.74,2.14,6.09l.18.45a24.84,24.84,0,0,1-2.52-3.9c-.63-1.22-2.11-4.31-2.71-5.49-1.37-2.79-4.23-8.6-5.59-11.34l-1.84-3.75,0-.06a14.33,14.33,0,0,1-.51-1.38c-.23-.66-.42-1.31-.6-2a4.8,4.8,0,0,1-.15-.63c-.1-.39-.18-.78-.25-1.18a4.37,4.37,0,0,1-.09-.5,8.84,8.84,0,0,1-.14-.92l0-.17c0-.34-.09-.7-.12-1.06,0-.15,0-.3,0-.45,0-.3,0-.6-.06-.91,0-.11,0-.22,0-.33,0-.37,0-.75,0-1.14s0-1.06.06-1.6a29.36,29.36,0,0,1,.59-4.22,10.2,10.2,0,0,1,.27-1.09c.08-.36.19-.7.29-1a26.8,26.8,0,0,1,8.43-12.87,10,10,0,0,1,.79-.67,26.68,26.68,0,0,1,2.63-1.87,29.51,29.51,0,0,1,12.64-4.31c.35,0,.69-.06,1.05-.07a9.69,9.69,0,0,1,1.06-.06h1.08a28.08,28.08,0,0,1,4.29.33,25.69,25.69,0,0,1,2.56.5l.12,0,.36.09a3.74,3.74,0,0,1,.48.12,1.81,1.81,0,0,1,.31.09,2,2,0,0,1,.3.09l.12,0Z"/><path class="cls-9" d="M344.39,201.68a23.64,23.64,0,0,1-.56-3l0,.08a8.84,8.84,0,0,0,.14.92,4.37,4.37,0,0,0,.09.5c.07.4.15.79.25,1.18C344.34,201.46,344.37,201.57,344.39,201.68Z"/><path class="cls-10" d="M345.08,204c-.23-.66-.44-1.31-.6-2C344.66,202.65,344.85,203.3,345.08,204Z"/><path class="cls-11" d="M335.1,201.33l-18.27,19.72-1.11.07-1,.07c-1.39.11-2.63.24-3.68.36l-.9.11c-.45.06-.86.11-1.21.17l-.46.06-1.19.19h-.1l0,0c.27-.25,22.21-19,24.44-21l0,0a2.31,2.31,0,0,1,1.42-.56A2.43,2.43,0,0,1,335.1,201.33Z"/><path class="cls-11" d="M385.27,170a31.88,31.88,0,0,0-13.78,1.4c-.8.27-1.57.57-2.32.89l-1.35.65c-.2.12-.42.23-.64.35l-1.14.65-.56.34c-.19.11-.36.24-.56.35a29.18,29.18,0,0,0-2.64,2c-.26.21-.54.44-.8.68v0l-.09.07-.09.08-.25.23-.15.14-.43.42c-.19.17-.36.34-.49.48s-.49.51-.72.77-.47.51-.7.78c-.44.5-.87,1-1.26,1.56s-.81,1.09-1.18,1.66c-.09.13-.2.31-.28.44a74,74,0,0,0-.87,1.47c-.16.28-.32.58-.46.86a1.91,1.91,0,0,0-.15.28,29.14,29.14,0,0,0-2.09,21.5l0,.13.2.57.13.37,0,.08,3.38,9.17a64.43,64.43,0,0,0,6.73,13.24,60,60,0,0,1-12.69-17.14l-4-8.16,0-.07-.16-.33-.24-.51,0-.12a27.1,27.1,0,0,1-.14-20.09,1.53,1.53,0,0,1,.11-.27c.1-.28.22-.57.34-.84s.21-.51.34-.76.2-.45.32-.69l.22-.43q.44-.84.93-1.65c.31-.54.66-1.06,1-1.57.18-.27.37-.54.57-.79s.38-.52.59-.78.25-.31.41-.49l.36-.43.12-.14.21-.24.08-.08.07-.08v0c.22-.24.45-.48.67-.7a26,26,0,0,1,2.26-2.08c.17-.12.32-.26.48-.38l.49-.37c.32-.24.67-.47,1-.71l.56-.38,1.18-.73c.67-.37,1.35-.73,2.06-1a29.54,29.54,0,0,1,12.93-2.62c.38,0,.79,0,1.19,0,.65,0,1.29.1,1.93.17a6.5,6.5,0,0,1,.77.12l.83.14c.54.1,1.08.21,1.62.34A28.17,28.17,0,0,1,385.27,170Z"/><path class="cls-12" d="M346.14,206.47l-.08-.16Z"/><path class="cls-13" d="M349.81,213.92l-1-2C349.12,212.52,349.47,213.21,349.81,213.92Z"/><path class="cls-14" d="M353.39,173.72l-.17.16-.44.38C353,174.08,353.18,173.89,353.39,173.72Z"/><path class="cls-15" d="M370.51,166.94l-.18,0-.53,0C370,167,370.27,166.94,370.51,166.94Z"/><path class="cls-16" d="M343.61,193.91c0,.35,0,.71,0,1.07v-.28Z"/><path class="cls-17" d="M345.62,205.39l0,0a11.65,11.65,0,0,1-.42-1.12c.13.35.26.7.41,1.05Z"/><path class="cls-11" d="M311.42,228.81l-36.36,39.38-.66.09-3.52.5c-4.19.61-8.2,1.29-12,2-1.44.27-2.84.55-4.21.83s-2.92.61-4.31.92c31.24-27.5,36-32.33,36-32.33,5.7-5.26,14.64-10,22.32-11.06C309.56,229,310.47,228.91,311.42,228.81Z"/><path class="cls-1" d="M326.82,118.26a36.55,36.55,0,0,0-4.37,38.25c1.28,2.76,2.94,6.32,4.79,10.32.36.73.69,1.49,1.05,2.26.29.6.58,1.23.88,1.86l1.09,2.38c1.75,3.76,3.56,7.7,5.36,11.57.26.53.51,1.07.75,1.59.09.19.18.37.25.54l1,2.11-.1-.19-1-2c-.08-.17-.17-.34-.26-.52-.24-.5-.5-1-.76-1.53-1.84-3.72-3.69-7.51-5.47-11.13l-1.12-2.29-.89-1.79c-.37-.74-.71-1.47-1.07-2.17-1.89-3.85-3.58-7.27-4.89-9.93a37.8,37.8,0,0,1,2.4-37.8,24.14,24.14,0,0,1,3.4-4.12c.13-.14.27-.27.41-.4s.47-.43.71-.63.34-.29.51-.42.37-.29.56-.43a23.55,23.55,0,0,1,6.17-3.38l.05,0,.81-.25.48-.14c.47-.14.94-.26,1.41-.37l.42-.1a26.26,26.26,0,0,0-6.25,3l-.63.41-.57.4c-.26.19-.53.4-.79.61s-.31.25-.46.38a25.34,25.34,0,0,0-3.86,4"/><path class="cls-18" d="M357.35,110.92l.08,0h0l-.09,0"/><path class="cls-19" d="M356.94,110.72h-.17l-.73,0c-.42,0-.85,0-1.28.09.9,0,1.8,0,2.67.11l-.08,0-.41-.2"/><polyline class="cls-20" points="337.67 189.29 337.7 189.35 337.72 189.39 337.69 189.32 337.67 189.29"/><polyline class="cls-21" points="337.64 189.22 337.67 189.29 337.69 189.32 337.64 189.22"/><path class="cls-22" d="M400.94,224.62h.31a5,5,0,0,0-.77,0c-.37,0-.71,0-1.07.06a30.1,30.1,0,0,0-13,4.28,26.69,26.69,0,0,0-2.71,1.88,10.56,10.56,0,0,0-.82.68,27.43,27.43,0,0,0-8.76,13.08c-.11.35-.23.69-.31,1.06a11.34,11.34,0,0,0-.29,1.11,30.59,30.59,0,0,0-.65,4.32c0,.55-.05,1.1-.08,1.63s0,.79,0,1.17c0,.11,0,.22,0,.34,0,.31,0,.62.05.93,0,.15,0,.31,0,.46,0,.37.07.74.11,1.08l0,.18a7.09,7.09,0,0,0,.13.94,4.17,4.17,0,0,0,.09.51,12.32,12.32,0,0,0,.24,1.21,4.72,4.72,0,0,0,.15.65c.17.68.36,1.35.59,2a14.11,14.11,0,0,0,.51,1.42l0,.06,1.84,3.86c1.36,2.82,4.23,8.79,5.6,11.66.6,1.22,2.08,4.4,2.71,5.65.08.16.17.32.26.48-.35-.54-.67-1.1-1-1.68-.63-1.22-2.11-4.31-2.71-5.49-1.37-2.79-4.23-8.6-5.59-11.34l-1.84-3.75,0-.06a14.33,14.33,0,0,1-.51-1.38c-.23-.66-.42-1.31-.6-2a4.8,4.8,0,0,1-.15-.63c-.1-.39-.18-.78-.25-1.18a4.37,4.37,0,0,1-.09-.5,8.84,8.84,0,0,1-.14-.92l0-.17c0-.34-.09-.7-.12-1.06,0-.15,0-.3,0-.45,0-.3,0-.6-.06-.91,0-.11,0-.22,0-.33,0-.37,0-.75,0-1.14s0-1.06.06-1.6a29.36,29.36,0,0,1,.59-4.22,10.2,10.2,0,0,1,.27-1.09c.08-.36.19-.7.29-1a26.8,26.8,0,0,1,8.43-12.87,10,10,0,0,1,.79-.67,26.68,26.68,0,0,1,2.63-1.87,29.51,29.51,0,0,1,12.64-4.31c.35,0,.69-.06,1.05-.07a9.69,9.69,0,0,1,1.06-.06h1.08Z"/><path class="cls-7" d="M210.7,291.69a59.51,59.51,0,0,1-7.44,3.13l-.61.19c-.42.14-.85.26-1.26.38l-.53.14-.82.2-.83.18a28.67,28.67,0,0,1-4.71.54h-1.69A29.8,29.8,0,0,1,174.14,244l.65-.56h0l2.37-1.7a37.58,37.58,0,0,1,19.05-6.18h8a35.59,35.59,0,0,0-18,5.85L184,243h0l-.62.52A28.19,28.19,0,0,0,201,293.15h1.59a26.61,26.61,0,0,0,4.46-.51l.78-.17.78-.19c.18-.05.34-.1.51-.13l1.19-.36Z"/><path class="cls-1" d="M174.7,288.17a30.26,30.26,0,0,0,12.8,7.66A29.79,29.79,0,0,1,174.14,244l.65-.56h0l2.37-1.7a37.86,37.86,0,0,1,13-5.43,38.77,38.77,0,0,0-10.62,4.88l-2.41,1.74h0l-.68.57A30.51,30.51,0,0,0,174.7,288.17Z"/><path class="cls-23" d="M332.58,200.65l-21.8,20.94c-2.24.27-3.55.51-3.55.51l0,0c.27-.25,22.21-19,24.44-21A2.35,2.35,0,0,1,332.58,200.65Z"/><path class="cls-23" d="M295.52,233.79l-39,37.46q-3.19.64-6.12,1.29c31.24-27.5,36-32.33,36-32.33A45.78,45.78,0,0,1,295.52,233.79Z"/><path class="cls-7" d="M318.31,121.94,206.6,215.48c-4.79,4-1.5,11.52,4.76,11.52h42.15l-26.22-.1c-6.2,0-9.24-5.56-4.5-10l103.48-99.44a16.15,16.15,0,0,1,1.58-1.8c.32-.33.65-.63,1-.92l.47-.39.17-.14.56-.43.2-.14.83-.8A106.77,106.77,0,0,0,318.31,121.94Z"/><path class="cls-1" d="M209.08,216.05l77.7-67.71L206.6,215.48c-4.35,3.65-2,10.18,3.12,11.34A6.88,6.88,0,0,1,209.08,216.05Z"/></svg>