<svg id="Layer_1" data-name="Layer 1" xmlns="http://www.w3.org/2000/svg" xmlns:xlink="http://www.w3.org/1999/xlink" viewBox="0 0 600 600"><defs><style>.cls-1{fill:#fff;}.cls-2{fill:#848484;}.cls-3{fill:#0b5567;}.cls-4{fill:#b5b5b5;}.cls-5{fill:url(#linear-gradient);}.cls-6{fill:url(#linear-gradient-2);}.cls-7{fill:url(#linear-gradient-3);}.cls-8{fill:url(#linear-gradient-4);}.cls-9{fill:url(#linear-gradient-5);}.cls-10{fill:url(#linear-gradient-6);}.cls-11{fill:url(#linear-gradient-7);}.cls-12{fill:url(#linear-gradient-8);}.cls-13{fill:url(#linear-gradient-9);}.cls-14{fill:url(#linear-gradient-10);}</style><linearGradient id="linear-gradient" x1="289.26" y1="-2620.25" x2="290.26" y2="-2620.25" gradientTransform="matrix(0.56, 0, 0, -0.56, 182.22, -1264.48)" gradientUnits="userSpaceOnUse"><stop offset="0" stop-color="#1291b0"/><stop offset="0.13" stop-color="#1291b0"/><stop offset="0.19" stop-color="#1399b9"/><stop offset="0.32" stop-color="#14a2c5"/><stop offset="0.5" stop-color="#15a7cc"/><stop offset="1" stop-color="#15a9ce"/></linearGradient><linearGradient id="linear-gradient-2" x1="215.23" y1="-2620.25" x2="216.23" y2="-2620.25" gradientTransform="matrix(0.6, 0, 0, -0.6, 215.64, -1366.42)" xlink:href="#linear-gradient"/><linearGradient id="linear-gradient-3" x1="6960.06" y1="-2620.25" x2="6961.07" y2="-2620.25" gradientTransform="matrix(0.08, 0, 0, -0.08, -208.54, -2.55)" xlink:href="#linear-gradient"/><linearGradient id="linear-gradient-4" x1="-205.04" y1="-2620.25" x2="-204.04" y2="-2620.25" gradientTransform="matrix(1.01, 0, 0, -1.01, 555.58, -2428.98)" xlink:href="#linear-gradient"/><linearGradient id="linear-gradient-5" x1="198.45" y1="-2620.25" x2="199.45" y2="-2620.25" gradientTransform="matrix(0.61, 0, 0, -0.61, 232.02, -1421.21)" xlink:href="#linear-gradient"/><linearGradient id="linear-gradient-6" x1="54.86" y1="-2620.25" x2="55.86" y2="-2620.25" gradientTransform="matrix(0.71, 0, 0, -0.71, 330.94, -1690.04)" xlink:href="#linear-gradient"/><linearGradient id="linear-gradient-7" x1="-385.04" y1="-2284.71" x2="-384.04" y2="-2284.71" gradientTransform="matrix(0.89, 0.69, 0.69, -0.89, 2262.36, -1582.16)" xlink:href="#linear-gradient"/><linearGradient id="linear-gradient-8" x1="-564.22" y1="-2422.93" x2="-563.22" y2="-2422.93" gradientTransform="matrix(1.52, 1.17, 1.17, -1.52, 4042.67, -2816.36)" xlink:href="#linear-gradient"/><linearGradient id="linear-gradient-9" x1="3419.24" y1="-1168.08" x2="3420.24" y2="-1168.08" gradientTransform="matrix(0.13, 0.04, 0.04, -0.13, -57.5, -117.02)" gradientUnits="userSpaceOnUse"><stop offset="0" stop-color="#95deef"/><stop offset="0.13" stop-color="#95deef"/><stop offset="1" stop-color="#8ad4e6"/></linearGradient><linearGradient id="linear-gradient-10" x1="3419.24" y1="-1167.7" x2="3420.24" y2="-1167.7" gradientTransform="matrix(0.13, 0.04, 0.04, -0.13, -57.5, -117.02)" gradientUnits="userSpaceOnUse"><stop offset="0" stop-color="#57a1b2"/><stop offset="0.13" stop-color="#57a1b2"/><stop offset="1" stop-color="#4c97a9"/></linearGradient></defs><path class="cls-1" d="M391.13,435.74a5.36,5.36,0,0,1,8.5,0,8.8,8.8,0,0,1,1.62,5.51,9.66,9.66,0,0,1-1.59,5.91,5.4,5.4,0,0,1-8.54,0,8.81,8.81,0,0,1-1.6-5.52A9.61,9.61,0,0,1,391.13,435.74ZM386,441.53a11.17,11.17,0,0,0,2.61,7.73,8.66,8.66,0,0,0,6.8,2.92,9.16,9.16,0,0,0,4.94-1.33,8.83,8.83,0,0,0,3.3-3.74,12.28,12.28,0,0,0,1.16-5.41v-.25a11.24,11.24,0,0,0-2.61-7.77,8.68,8.68,0,0,0-6.82-2.92,9,9,0,0,0-4.86,1.32,8.87,8.87,0,0,0-3.33,3.74,12.23,12.23,0,0,0-1.19,5.46Zm-11.92-14.44a2,2,0,0,0,1.56.57,2,2,0,0,0,1.56-.57,2,2,0,0,0,.54-1.43,2.07,2.07,0,0,0-.54-1.45,2,2,0,0,0-1.56-.59,2,2,0,0,0-1.56.59,2.11,2.11,0,0,0-.53,1.45A2,2,0,0,0,374.05,427.09Zm3.29,4.05h-3.53V451.8h3.53Zm-19.26-5v5h-3.76v2.73h3.76v12.81a6.16,6.16,0,0,0,1.2,4.07,4.41,4.41,0,0,0,3.57,1.43,10.08,10.08,0,0,0,2.72-.38V449a8.16,8.16,0,0,1-1.69.23,2.14,2.14,0,0,1-1.75-.62,2.81,2.81,0,0,1-.52-1.86V433.87h3.86v-2.73h-3.86v-5Zm-22.4,22a3.23,3.23,0,0,1-1.1-2.59c0-2.54,2.16-3.8,6.49-3.8h2.77V446a5.22,5.22,0,0,1-2.16,2.24,6.22,6.22,0,0,1-3.15.86A4.24,4.24,0,0,1,335.68,448.17Zm12.42,3.63v-.31a11.46,11.46,0,0,1-.73-4.52v-9.51a6.44,6.44,0,0,0-2.1-4.92,8.16,8.16,0,0,0-5.59-1.78,10,10,0,0,0-4.14.84,7.52,7.52,0,0,0-3,2.28,4.89,4.89,0,0,0-1.1,3H335a2.79,2.79,0,0,1,1.27-2.31,5.15,5.15,0,0,1,3.17-1,4.47,4.47,0,0,1,3.27,1.1,4,4,0,0,1,1.11,2.95v1.62H340.4a11.54,11.54,0,0,0-6.9,1.79,5.83,5.83,0,0,0-2.46,5,5.6,5.6,0,0,0,2,4.38,7.27,7.27,0,0,0,5,1.73,7.9,7.9,0,0,0,5.89-2.56,7.35,7.35,0,0,0,.49,2.18Zm-24.92-18.16v-2.5H307.52v2.92h11.23l-11.4,15.14v2.6h16.4v-2.88H311.67Zm-27.69-6.55a2,2,0,0,0,1.55.57,1.9,1.9,0,0,0,2.1-2,2.11,2.11,0,0,0-.53-1.45,2,2,0,0,0-1.57-.59,1.94,1.94,0,0,0-1.55.59,2.11,2.11,0,0,0-.53,1.45A2,2,0,0,0,295.49,427.09Zm3.29,4.05h-3.53V451.8h3.53Zm-13.4-8.67h-3.53V451.8h3.53Zm-25,25.7a3.2,3.2,0,0,1-1.11-2.59c0-2.54,2.16-3.8,6.49-3.8h2.77V446a5.22,5.22,0,0,1-2.16,2.24,6.22,6.22,0,0,1-3.15.86A4.2,4.2,0,0,1,260.41,448.17Zm12.41,3.63v-.31a11.46,11.46,0,0,1-.73-4.52v-9.51a6.44,6.44,0,0,0-2.1-4.92,8.16,8.16,0,0,0-5.59-1.78,10,10,0,0,0-4.14.84,7.59,7.59,0,0,0-3,2.28,4.88,4.88,0,0,0-1.09,3h3.55a2.78,2.78,0,0,1,1.28-2.31,5.13,5.13,0,0,1,3.17-1,4.46,4.46,0,0,1,3.26,1.1,4,4,0,0,1,1.11,2.95v1.62h-3.44a11.56,11.56,0,0,0-6.9,1.79,5.82,5.82,0,0,0-2.45,5,5.59,5.59,0,0,0,2,4.38,7.27,7.27,0,0,0,5,1.73,7.9,7.9,0,0,0,5.89-2.56,7.35,7.35,0,0,0,.49,2.18ZM243.5,427.09a2.1,2.1,0,0,0,3.66-1.43,2.07,2.07,0,0,0-.54-1.45,2.36,2.36,0,0,0-3.12,0,2.11,2.11,0,0,0-.53,1.45A2,2,0,0,0,243.5,427.09Zm3.29,4.05h-3.53V451.8h3.53Zm-11-.12a3.78,3.78,0,0,0-1.57-.26,5.48,5.48,0,0,0-4.92,2.77l-.06-2.39h-3.44V451.8h3.53V437.14a4.65,4.65,0,0,1,4.72-3,10.61,10.61,0,0,1,1.74.13Zm-23,4.12a6.7,6.7,0,0,1,1.45,4.17v.27H203.93a7.53,7.53,0,0,1,1.8-4.36,4.69,4.69,0,0,1,3.59-1.56A4.43,4.43,0,0,1,212.83,435.14Zm4.72,13.05-2.16-1.68a8.08,8.08,0,0,1-2.27,2,6.28,6.28,0,0,1-3.17.76,5.63,5.63,0,0,1-4.35-1.88,7.35,7.35,0,0,1-1.78-4.94h14V441q0-5-2.23-7.6a7.74,7.74,0,0,0-6.26-2.65,8.26,8.26,0,0,0-4.58,1.36,9.18,9.18,0,0,0-3.28,3.78,12.44,12.44,0,0,0-1.18,5.49V442a10.23,10.23,0,0,0,2.64,7.38,9,9,0,0,0,6.84,2.76A8.68,8.68,0,0,0,217.55,448.19Zm-29.63.3a5.68,5.68,0,0,1-3.21.81,5.55,5.55,0,0,1-3.51-1,3.67,3.67,0,0,1-1.42-2.82h-3.53a5.92,5.92,0,0,0,1.08,3.41,7,7,0,0,0,3,2.45,10.38,10.38,0,0,0,4.4.88,9.23,9.23,0,0,0,5.74-1.67,5.27,5.27,0,0,0,2.22-4.44,4.89,4.89,0,0,0-.79-2.81,6.28,6.28,0,0,0-2.44-2,18.54,18.54,0,0,0-4.29-1.41,12.27,12.27,0,0,1-3.65-1.25,2.12,2.12,0,0,1-1-1.92,2.65,2.65,0,0,1,1.08-2.2,4.86,4.86,0,0,1,3-.84,4.6,4.6,0,0,1,3.1,1,3.16,3.16,0,0,1,1.24,2.5h3.55a5.76,5.76,0,0,0-2.19-4.64,8.64,8.64,0,0,0-5.7-1.81,8.38,8.38,0,0,0-5.49,1.75,5.39,5.39,0,0,0-2.15,4.3,4.53,4.53,0,0,0,.76,2.64,6.16,6.16,0,0,0,2.33,1.91,17.92,17.92,0,0,0,4.26,1.37,10.36,10.36,0,0,1,3.76,1.37,2.59,2.59,0,0,1,1.08,2.22A2.51,2.51,0,0,1,187.92,448.49Z"/><path class="cls-1" d="M413.12,431.14V451.8h3.53V437.08a6.21,6.21,0,0,1,2-2.41,5.1,5.1,0,0,1,3-.92,4.07,4.07,0,0,1,3.12,1.08,4.72,4.72,0,0,1,1,3.3V451.8h3.53V438.15q-.06-7.39-6.61-7.39a7.52,7.52,0,0,0-6.18,3l-.12-2.6Z"/><path class="cls-1" d="M366.25,472.63a3.52,3.52,0,0,0-1.56-.27,5.52,5.52,0,0,0-4.93,2.77l-.06-2.38h-3.43v20.66h3.53V478.74a4.66,4.66,0,0,1,4.72-3,10.36,10.36,0,0,1,1.73.14Zm-23,4.12a6.72,6.72,0,0,1,1.45,4.17v.27H334.39a7.55,7.55,0,0,1,1.79-4.37,4.75,4.75,0,0,1,3.59-1.55A4.44,4.44,0,0,1,343.29,476.75ZM348,489.8l-2.16-1.68a7.78,7.78,0,0,1-2.27,2,6.13,6.13,0,0,1-3.17.77,5.6,5.6,0,0,1-4.34-1.89,7.31,7.31,0,0,1-1.79-4.93h14v-1.47q0-5-2.23-7.6a7.75,7.75,0,0,0-6.27-2.66,8.27,8.27,0,0,0-4.57,1.37,9.2,9.2,0,0,0-3.29,3.78,12.44,12.44,0,0,0-1.17,5.49v.65a10.23,10.23,0,0,0,2.64,7.38,9,9,0,0,0,6.83,2.76A8.68,8.68,0,0,0,348,489.8Zm-29.79-.91a4.79,4.79,0,0,1-4,2,5.21,5.21,0,0,1-4.85-2.83v-9.87a5.19,5.19,0,0,1,4.81-2.85,4.82,4.82,0,0,1,4.09,2,9.14,9.14,0,0,1,1.49,5.51Q319.71,486.88,318.21,488.89Zm5-5.91c0-3.33-.72-5.94-2.17-7.81a7,7,0,0,0-5.89-2.81,7.27,7.27,0,0,0-6,2.68l-.17-2.29h-3.22v28.6h3.53v-10a7.58,7.58,0,0,0,5.92,2.39,6.92,6.92,0,0,0,5.84-2.88,12.39,12.39,0,0,0,2.16-7.6Zm-27-18.9h-3.53v29.33h3.53ZM279.4,476.75a6.66,6.66,0,0,1,1.45,4.17v.27H270.5a7.56,7.56,0,0,1,1.8-4.37,4.73,4.73,0,0,1,3.59-1.55A4.41,4.41,0,0,1,279.4,476.75Zm4.72,13.05L282,488.12a7.91,7.91,0,0,1-2.27,2,6.15,6.15,0,0,1-3.17.77,5.57,5.57,0,0,1-4.34-1.89,7.31,7.31,0,0,1-1.79-4.93h14v-1.47q0-5-2.24-7.6a7.73,7.73,0,0,0-6.26-2.66,8.24,8.24,0,0,0-4.57,1.37,9.13,9.13,0,0,0-3.29,3.78,12.44,12.44,0,0,0-1.17,5.49v.65a10.27,10.27,0,0,0,2.63,7.38,9,9,0,0,0,6.84,2.76A8.68,8.68,0,0,0,284.12,489.8Zm-38.28-25.72H242.3v29.33h3.54V478.68a6.23,6.23,0,0,1,2-2.4,5.12,5.12,0,0,1,3-.92,4.11,4.11,0,0,1,3.12,1.07,4.72,4.72,0,0,1,1,3.3v13.68h3.53V479.75c0-4.92-2.24-7.39-6.6-7.39a7.51,7.51,0,0,0-6.11,2.89Z"/><path class="cls-1" d="M411.48,389.4a16.58,16.58,0,0,1-11.92,5,16.14,16.14,0,0,1-11.91-5,19.25,19.25,0,0,1-4.87-13.2,18.81,18.81,0,0,1,4.87-13.2,15.47,15.47,0,0,1,11.91-5.25A15.88,15.88,0,0,1,411.48,363a18.89,18.89,0,0,1,5,13.2A19.34,19.34,0,0,1,411.48,389.4ZM430.06,351a6.87,6.87,0,0,0-6.79-6.92,7,7,0,0,0-6.67,5.64,29.17,29.17,0,0,0-17-5.64,29.48,29.48,0,0,0-21.77,9.61,32.34,32.34,0,0,0-8.72,22.55,32.81,32.81,0,0,0,8.72,22.55,29.75,29.75,0,0,0,21.77,9.35,29.06,29.06,0,0,0,17-5.51,7,7,0,0,0,6.67,5.51,6.84,6.84,0,0,0,6.79-6.79V351ZM318.85,408.1a7.13,7.13,0,0,0,7.17-7.05V389.78l7.05-7,18.83,22.81a6.81,6.81,0,0,0,5.38,2.56,6.71,6.71,0,0,0,4.49-1.67,7.1,7.1,0,0,0,1-10l-19.73-23.7,19.22-19.22a7,7,0,0,0,0-10,7.19,7.19,0,0,0-10,0L326,369.79V325.47a7.13,7.13,0,0,0-7.17-7.05,7,7,0,0,0-7.05,7.05v75.58A7,7,0,0,0,318.85,408.1Zm-65.34,0a7.13,7.13,0,0,0,7.17-7.05V389.78l7.05-7,18.83,22.81a6.81,6.81,0,0,0,5.38,2.56,6.71,6.71,0,0,0,4.49-1.67,7.1,7.1,0,0,0,1-10l-19.73-23.7,19.22-19.22a7,7,0,0,0,0-10,7.19,7.19,0,0,0-10,0l-26.27,26.26V325.47a7.13,7.13,0,0,0-7.17-7.05,7,7,0,0,0-7,7.05v75.58A7,7,0,0,0,253.51,408.1Zm-44.33-18.7a16.58,16.58,0,0,1-11.92,5,16.14,16.14,0,0,1-11.91-5,19.21,19.21,0,0,1-4.87-13.2,18.76,18.76,0,0,1,4.87-13.2,15.47,15.47,0,0,1,11.91-5.25A15.88,15.88,0,0,1,209.18,363a18.89,18.89,0,0,1,5,13.2A19.34,19.34,0,0,1,209.18,389.4ZM227.75,351A6.86,6.86,0,0,0,221,344a7,7,0,0,0-6.67,5.64,29.17,29.17,0,0,0-17-5.64,29.48,29.48,0,0,0-21.77,9.61,32.34,32.34,0,0,0-8.72,22.55,32.81,32.81,0,0,0,8.72,22.55,29.75,29.75,0,0,0,21.77,9.35,29.06,29.06,0,0,0,17-5.51A7,7,0,0,0,221,408.1a6.83,6.83,0,0,0,6.78-6.79V351Z"/><path class="cls-2" d="M373.55,279.85C342.89,264,304.92,264.06,275.24,268l-.65.09-3.52.5c-4.18.61-8.18,1.28-11.94,2-1.43.27-2.83.55-4.2.83s-2.91.61-4.3.92c31.18-27.45,35.9-32.27,35.9-32.27,5.69-5.25,14.62-9.93,22.28-11,.87-.12,1.78-.24,2.73-.34,9.16-.95,23.49-.3,33.21,2.52l.07,0,.11,0a44.58,44.58,0,0,1,12.72,6.39c2.17,1.58,5.86,4.64,7.5,6-.11.39-.19.78-.27,1.18a35.77,35.77,0,0,0-.73,5.28v.06c0,.42,0,.84-.05,1.25v.8c0,.4,0,.84,0,1.33,0,.18,0,.41,0,.68v.18c0,.22,0,.44,0,.66s0,.38,0,.5v.13c0,.37.07.74.12,1.1v.11a5.58,5.58,0,0,0,.08.57c0,.36.1.72.17,1.07a7.85,7.85,0,0,0,.14.78c.08.41.16.81.25,1.19a10.59,10.59,0,0,0,.28,1.12c.09.36.19.69.28,1,.14.48.28.92.43,1.34.22.68.44,1.27.68,1.85.1.25.22.5.35.75l1.76,3.57C369.9,272.45,372.06,276.84,373.55,279.85Z"/><rect class="cls-3" x="282.5" y="233.47" width="0.01" height="0.01"/><polygon class="cls-3" points="282.53 233.46 282.52 233.47 282.52 233.46 282.53 233.46"/><path class="cls-1" d="M278.92,235.38s-58.13,50.72-64.35,54.14a65.86,65.86,0,0,1-11,5l-.6.19c-.43.14-.85.26-1.26.38l-.53.13c-.27.07-.54.15-.83.21l-.82.18a27.5,27.5,0,0,1-4.7.53h-1.69a29.74,29.74,0,0,1-18.64-52.33l.66-.55h0l2.36-1.7a37.44,37.44,0,0,1,19-6.17h82.37Z"/><path class="cls-2" d="M342,223.1a2,2,0,0,1-.59-.1c-8.64-2.38-17.84-2.5-24.51-2.11l-1.11.07-.95.07c-1.38.11-2.62.24-3.67.36l-.9.11c-.45.06-.86.11-1.21.17l-.46.06-1.18.19h-.1l0,0c.27-.25,22.17-19,24.39-20.91l0,0a2.31,2.31,0,0,1,1.42-.56,2.43,2.43,0,0,1,1.95.78,2.78,2.78,0,0,1,.4.59c.49,1,1.17,2.39,1.95,4q.45.88.93,1.86c2,4.06,4.37,8.88,5.92,12A2.41,2.41,0,0,1,342,223.1Z"/><path class="cls-2" d="M414.75,219.17l-.06,0c-.6-.25-1.22-.48-1.95-.73-.31-.11-.63-.22-1-.32l-.22-.06-.16-.05-.59-.17-.82-.2-.18-.05-.1,0h-.05l-.81-.2h-.05c-.82-.19-1.63-.33-2.43-.45a36.83,36.83,0,0,0-5.45-.41h-1.45c-.32,0-.76,0-1.28.07s-.89,0-1.3.1a37.78,37.78,0,0,0-16,5.47,35.38,35.38,0,0,0-3.36,2.39c-.3.23-.72.56-1.15,1a34.65,34.65,0,0,0-8.26,10.42l-.85-.66a59.81,59.81,0,0,1-17.13-20.92c-2.14-4.33-4-8.13-4-8.14l0-.07-.16-.33-.24-.51,0-.12a27,27,0,0,1-.14-20l.11-.27c.1-.28.22-.57.34-.84s.21-.51.34-.76.2-.45.32-.69l.22-.43c.29-.56.59-1.11.92-1.65s.66-1,1-1.56c.18-.27.37-.54.57-.79s.38-.52.59-.78.25-.31.41-.49l.36-.43.12-.14L351,176l.08-.08.07-.08v0c.22-.24.45-.48.67-.7a27.44,27.44,0,0,1,2.25-2.07c.17-.12.32-.26.48-.38l.49-.37c.32-.24.67-.47,1-.71l.56-.38,1.18-.73c.66-.37,1.34-.73,2.05-1.05a29.62,29.62,0,0,1,12.91-2.61c.38,0,.79,0,1.19,0,.65,0,1.28.1,1.92.17a6.5,6.5,0,0,1,.77.12l.83.14c.54.1,1.08.21,1.62.34a26.86,26.86,0,0,1,10.24,4.87c.25.19.51.4.76.63a24.26,24.26,0,0,1,3.91,4.37l0,.05c.31.44.58.88.85,1.33Z"/><path class="cls-4" d="M436.1,270.66c-.06.93-.17,1.84-.31,2.74s-.34,1.76-.57,2.63c-.12.43-.24.86-.37,1.28s-.21.65-.33,1-.17.48-.27.71-.11.28-.17.42-.17.43-.26.64-.29.63-.44.94c-.38.79-.79,1.55-1.24,2.29s-.94,1.47-1.44,2.16c-.26.35-.52.69-.8,1a12.81,12.81,0,0,1-.84,1c-.28.32-.57.64-.88.95s-.92.91-1.39,1.33-1,.88-1.57,1.29c-.24.19-.5.38-.77.57l-.23.15c-.33.24-.66.47-1,.68l-.09.06q-.51.33-1.05.63c-.36.21-.72.4-1.09.59l-.09.05c-.37.19-.74.37-1.12.54l-.71.31-.63.26-1.07.4a26.18,26.18,0,0,1-2.52.75l-.9.2-.22,0-.3.07-.93.16h-.07l-.44.06-.78.1-.44,0c-.44,0-.89.07-1.34.09s-.79,0-1.18,0q-.92,0-1.86-.06a21.84,21.84,0,0,1-2.3-.15H404a24.9,24.9,0,0,1-15.31-7l0,0a25,25,0,0,1-4.46-6.1c-.63-1.22-2.11-4.3-2.71-5.48-1.36-2.79-4.22-8.58-5.58-11.32l-1.83-3.74,0-.06a14.33,14.33,0,0,1-.51-1.38c-.23-.66-.42-1.31-.6-2a4.8,4.8,0,0,1-.15-.63c-.1-.39-.18-.77-.25-1.17a4.37,4.37,0,0,1-.09-.5,8.84,8.84,0,0,1-.14-.92l0-.17c0-.34-.09-.7-.12-1.06,0-.15,0-.3,0-.45,0-.3,0-.6-.06-.91,0-.11,0-.22,0-.33,0-.37,0-.74,0-1.13s0-1.06.06-1.6a29,29,0,0,1,.59-4.21,10.2,10.2,0,0,1,.27-1.09c.08-.36.19-.7.29-1a26.82,26.82,0,0,1,8.41-12.85,10,10,0,0,1,.79-.67,28.36,28.36,0,0,1,2.63-1.86,29.24,29.24,0,0,1,12.61-4.3c.35,0,.69-.06,1.05-.07a9.69,9.69,0,0,1,1.06-.06h1.08a28,28,0,0,1,4.28.33,23.07,23.07,0,0,1,2.56.49l.12,0,.36.09a3.59,3.59,0,0,1,.47.12,1.81,1.81,0,0,1,.31.09,2,2,0,0,1,.3.09l.12,0c.22.06.45.13.66.21.54.18,1.07.37,1.6.59a18.26,18.26,0,0,1,1.73.8,7.88,7.88,0,0,1,.76.4l.09.05c.24.13.47.27.7.42l.1,0a23.15,23.15,0,0,1,2.19,1.54l.63.51.06,0,.06.06.12.1c.31.25.62.54.91.81a3.82,3.82,0,0,1,.36.34l.5.51a28.58,28.58,0,0,1,4,5.51l2,4,.7,1.43,1.16,2.36,4.55,9.2A28.31,28.31,0,0,1,436.1,270.66Z"/><path class="cls-5" d="M344.45,201.56a23.64,23.64,0,0,1-.56-3l0,.08a8.84,8.84,0,0,0,.14.92,4.37,4.37,0,0,0,.09.5c.07.4.15.79.25,1.18C344.4,201.34,344.43,201.45,344.45,201.56Z"/><path class="cls-6" d="M345.14,203.83c-.23-.66-.44-1.3-.6-2C344.72,202.53,344.91,203.17,345.14,203.83Z"/><path class="cls-7" d="M346.2,206.34l-.08-.16Z"/><path class="cls-8" d="M349.86,213.78l-1-2.05C349.17,212.38,349.52,213.07,349.86,213.78Z"/><path class="cls-9" d="M353.43,173.65l-.17.16-.44.38C353,174,353.22,173.82,353.43,173.65Z"/><path class="cls-10" d="M370.52,166.88l-.18,0-.53,0C370.05,166.9,370.28,166.88,370.52,166.88Z"/><path class="cls-11" d="M343.67,193.8c0,.35,0,.71,0,1.07v-.28Z"/><path class="cls-12" d="M345.68,205.26l0,0a11.65,11.65,0,0,1-.42-1.12c.13.35.26.7.41,1Z"/><path class="cls-1" d="M394.69,178.42c-.13-.27-.27-.54-.4-.82l-.42-.84c-.14-.28-.29-.57-.43-.86s-.18-.39-.28-.59-.19-.39-.3-.59-.29-.6-.44-.91l-.45-.92L391,171l-.64-1.32-.75-1.52,0,0c-.3-.59-.58-1.18-.88-1.77l-1-2.08c-.46-1-.94-1.9-1.4-2.85s-.95-1.93-1.43-2.9c-2.26-4.54-4.57-9.23-6.83-13.79l-1.91-3.86c-.32-.65-.63-1.27-.95-1.89l-1.81-3.7-.88-1.78-1.7-3.43-1.65-3.33-2.61-5.25-2-4.1a17.36,17.36,0,0,0-7.06-6.39h0l-.5-.24h0A26.17,26.17,0,0,0,342.2,109a38.25,38.25,0,0,0-5,1.13h0c-5.22,1.21-15.33,8.94-18.72,11.8L206.91,215.33c-4.78,4-1.5,11.5,4.75,11.5H267c13.43,0,26.43-3.54,36.61-12.32l32.7-28.2h0l.25.52,1,2,1.08,2.21.29.58.31.61v0l.39.8.35.7.1.21.76,1.53.21.43.08.15.36.72.07.17,0,.07.08.12.06.14.13.26.74,1.53a1.68,1.68,0,0,0,.15.3l.27.54.42.84c.12.27.25.52.39.79l1.24,2.52.06.14.06.11.31.61.05.09,0,.08h0a27,27,0,0,1-.14-20.06l.11-.27c.1-.28.22-.57.34-.83s.21-.51.34-.76.2-.45.32-.69l.22-.43c.29-.56.59-1.11.92-1.65s.66-1.06,1-1.57c.18-.26.37-.53.57-.78s.38-.52.59-.78c.39-.49.81-1,1.25-1.46v0c.22-.24.45-.48.67-.7a27.44,27.44,0,0,1,2.25-2.08c.17-.12.32-.25.48-.37s.33-.27.49-.37l1-.72.89-.6.95-.56a17.55,17.55,0,0,1,1.93-1,29.48,29.48,0,0,1,12.91-2.61c.38,0,.79,0,1.19,0,.56,0,1.11.08,1.65.14.35.05.69.09,1,.15l.84.14q.81.13,1.62.33a27.14,27.14,0,0,1,7.32,2.87c.29.18.62.35.9.56s.48.3.7.45c.45.31.89.64,1.32,1,.25.19.51.4.76.62a24.32,24.32,0,0,1,3.91,4.38l0,.05c.31.44.58.87.85,1.32l.18.3C395,178.94,394.82,178.68,394.69,178.42ZM330.2,113.75l-.18.13.11-.08Zm-.8.62.17-.14.11-.09q-.56.45-1.08.93c.11-.1.21-.21.33-.31Zm-1.31,1.16-.27.28.12-.13Z"/><polyline class="cls-13" points="337.74 189.17 337.77 189.25 337.79 189.29 337.76 189.22 337.74 189.17"/><polyline class="cls-14" points="337.71 189.12 337.74 189.17 337.76 189.22 337.71 189.12"/></svg>