<svg id="Layer_1" data-name="Layer 1" xmlns="http://www.w3.org/2000/svg" xmlns:xlink="http://www.w3.org/1999/xlink" viewBox="0 0 800 400"><defs><style>.cls-1{fill:#0b5567;}.cls-2{fill:#848484;}.cls-3{fill:#515151;}.cls-4{fill:#fff;}.cls-5{fill:#7c7c7c;}.cls-6{fill:#8c8c8c;}.cls-7{fill:#5e5e5e;}.cls-8{fill:url(#linear-gradient);}.cls-9{fill:url(#linear-gradient-2);}.cls-10{fill:#1e1e1e;}.cls-11{fill:url(#linear-gradient-3);}.cls-12{fill:url(#linear-gradient-4);}.cls-13{fill:url(#linear-gradient-5);}.cls-14{fill:url(#linear-gradient-6);}.cls-15{fill:url(#linear-gradient-7);}.cls-16{fill:url(#linear-gradient-8);}.cls-17{fill:#9b9b9b;}.cls-18{fill:url(#linear-gradient-9);}.cls-19{fill:url(#linear-gradient-10);}.cls-20{fill:url(#linear-gradient-11);}.cls-21{fill:url(#linear-gradient-12);}.cls-22{fill:#727272;}.cls-23{fill:#a0a0a0;}.cls-24{fill:#3f3f3f;}</style><linearGradient id="linear-gradient" y1="-420" x2="1" y2="-420" gradientTransform="matrix(0.56, 0, 0, -0.56, 250.8, -23.98)" gradientUnits="userSpaceOnUse"><stop offset="0" stop-color="#1291b0"/><stop offset="0.13" stop-color="#1291b0"/><stop offset="0.19" stop-color="#1399b9"/><stop offset="0.32" stop-color="#14a2c5"/><stop offset="0.5" stop-color="#15a7cc"/><stop offset="1" stop-color="#15a9ce"/></linearGradient><linearGradient id="linear-gradient-2" x1="0" y1="-420" x2="1" y2="-420" gradientTransform="matrix(0.6, 0, 0, -0.6, 251.45, -38)" xlink:href="#linear-gradient"/><linearGradient id="linear-gradient-3" x1="0" y1="-420" x2="1" y2="-420" gradientTransform="matrix(0.08, 0, 0, -0.08, 253.03, 183.87)" xlink:href="#linear-gradient"/><linearGradient id="linear-gradient-4" x1="0" y1="-420" x2="1" y2="-420" gradientTransform="matrix(1.01, 0, 0, -1.01, 255.77, -200.29)" xlink:href="#linear-gradient"/><linearGradient id="linear-gradient-5" x1="0" y1="-420" x2="1" y2="-420" gradientTransform="matrix(0.61, 0, 0, -0.61, 259.75, -71.14)" xlink:href="#linear-gradient"/><linearGradient id="linear-gradient-6" x1="0" y1="-420" x2="1" y2="-420" gradientTransform="matrix(0.71, 0, 0, -0.71, 276.77, -120.21)" xlink:href="#linear-gradient"/><linearGradient id="linear-gradient-7" x1="0" y1="-420" x2="1" y2="-420" gradientTransform="matrix(0.9, 0.69, 0.69, -0.9, 540.26, -170.81)" xlink:href="#linear-gradient"/><linearGradient id="linear-gradient-8" x1="0" y1="-420" x2="1" y2="-420" gradientTransform="matrix(1.52, 1.17, 1.17, -1.52, 745.01, -424.05)" xlink:href="#linear-gradient"/><linearGradient id="linear-gradient-9" y1="-419.87" x2="1" y2="-419.87" gradientTransform="matrix(2.58, 0.88, 0.88, -2.58, 632.25, -960.72)" gradientUnits="userSpaceOnUse"><stop offset="0" stop-color="#95deef"/><stop offset="0.13" stop-color="#95deef"/><stop offset="1" stop-color="#8ad4e6"/></linearGradient><linearGradient id="linear-gradient-10" y1="-420" x2="1" y2="-420" gradientTransform="matrix(2.58, 0.88, 0.88, -2.58, 632.25, -960.72)" gradientUnits="userSpaceOnUse"><stop offset="0" stop-color="#5ba5b6"/><stop offset="0.13" stop-color="#5ba5b6"/><stop offset="1" stop-color="#509bad"/></linearGradient><linearGradient id="linear-gradient-11" y1="-420.13" y2="-420.13" gradientTransform="matrix(0.13, 0.04, 0.04, -0.13, 263.44, 145.22)" xlink:href="#linear-gradient-9"/><linearGradient id="linear-gradient-12" y1="-419.75" x2="1" y2="-419.75" gradientTransform="matrix(0.13, 0.04, 0.04, -0.13, 263.44, 145.22)" gradientUnits="userSpaceOnUse"><stop offset="0" stop-color="#57a1b2"/><stop offset="0.13" stop-color="#57a1b2"/><stop offset="1" stop-color="#4c97a9"/></linearGradient></defs><path d="M684.6,228.79v25.83H689V236.21a7.72,7.72,0,0,1,2.53-3,6.33,6.33,0,0,1,3.77-1.15,5.13,5.13,0,0,1,3.9,1.34,6,6,0,0,1,1.28,4.13v17.09h4.41V237.55q-.07-9.24-8.26-9.24a9.43,9.43,0,0,0-7.73,3.73l-.14-3.25Zm-27.49,5.75a6.71,6.71,0,0,1,10.64,0,11.06,11.06,0,0,1,2,6.89q0,4.74-2,7.38a6.33,6.33,0,0,1-5.34,2.64,6.4,6.4,0,0,1-5.34-2.6,11.06,11.06,0,0,1-2-6.9Q655.11,237.15,657.11,234.54Zm-6.44,7.24a14,14,0,0,0,3.26,9.66,10.84,10.84,0,0,0,8.51,3.65,11.35,11.35,0,0,0,6.16-1.67,10.89,10.89,0,0,0,4.13-4.66,15.32,15.32,0,0,0,1.45-6.77v-.31q0-6.06-3.26-9.71a10.88,10.88,0,0,0-8.53-3.66,11,11,0,0,0-10.23,6.33,15.33,15.33,0,0,0-1.49,6.83Zm-14.9-18.05a3,3,0,0,0,3.9,0,2.49,2.49,0,0,0,.67-1.79,2.58,2.58,0,0,0-.67-1.81,2.94,2.94,0,0,0-3.9,0,2.62,2.62,0,0,0-.66,1.81A2.52,2.52,0,0,0,635.77,223.73Zm4.12,5.06h-4.42v25.83h4.42Zm-24.08-6.25v6.25h-4.7v3.42h4.7v16a7.68,7.68,0,0,0,1.5,5.08,5.49,5.49,0,0,0,4.47,1.79,13.12,13.12,0,0,0,3.39-.47v-3.56a10.8,10.8,0,0,1-2.1.29,2.71,2.71,0,0,1-2.2-.78,3.6,3.6,0,0,1-.64-2.33v-16h4.82v-3.42h-4.82v-6.25Zm-28,27.54a4,4,0,0,1-1.38-3.25q0-4.74,8.11-4.74H598v5.29a6.46,6.46,0,0,1-2.69,2.8,7.86,7.86,0,0,1-3.94,1.07A5.32,5.32,0,0,1,587.82,250.08Zm15.51,4.54v-.39a14.6,14.6,0,0,1-.9-5.65V236.69a8,8,0,0,0-2.63-6.14,10.19,10.19,0,0,0-7-2.24,12.55,12.55,0,0,0-5.17,1.06,9.38,9.38,0,0,0-3.72,2.85,6,6,0,0,0-1.37,3.73H587a3.52,3.52,0,0,1,1.6-2.89,6.44,6.44,0,0,1,4-1.19,5.59,5.59,0,0,1,4.08,1.37,5,5,0,0,1,1.38,3.69v2h-4.29q-5.57,0-8.63,2.23a7.3,7.3,0,0,0-3.07,6.27,7,7,0,0,0,2.45,5.47,9.11,9.11,0,0,0,6.26,2.16,9.82,9.82,0,0,0,7.35-3.2,9.51,9.51,0,0,0,.62,2.73Zm-31.14-22.7v-3.13H552.62v3.65h14l-14.25,18.93v3.25h20.5V251H557.8Zm-34.61-8.19a3,3,0,0,0,3.9,0,2.49,2.49,0,0,0,.67-1.79,2.58,2.58,0,0,0-.67-1.81,2.94,2.94,0,0,0-3.9,0,2.61,2.61,0,0,0-.65,1.81A2.51,2.51,0,0,0,537.58,223.73Zm4.12,5.06h-4.42v25.83h4.42ZM525,218h-4.42v36.66H525Zm-31.21,32.12a4,4,0,0,1-1.39-3.25q0-4.74,8.12-4.74h3.46v5.29a6.54,6.54,0,0,1-2.7,2.8,7.8,7.8,0,0,1-3.94,1.07A5.31,5.31,0,0,1,493.74,250.08Zm15.51,4.54v-.39a14.58,14.58,0,0,1-.91-5.65V236.69a8,8,0,0,0-2.62-6.14,10.21,10.21,0,0,0-7-2.24,12.55,12.55,0,0,0-5.17,1.06,9.31,9.31,0,0,0-3.72,2.85,6.05,6.05,0,0,0-1.38,3.73h4.44a3.54,3.54,0,0,1,1.6-2.89,6.49,6.49,0,0,1,4-1.19,5.57,5.57,0,0,1,4.08,1.37,5,5,0,0,1,1.39,3.69v2h-4.3q-5.55,0-8.63,2.23a7.32,7.32,0,0,0-3.06,6.27,7,7,0,0,0,2.44,5.47,9.14,9.14,0,0,0,6.27,2.16,9.82,9.82,0,0,0,7.35-3.2,9.51,9.51,0,0,0,.62,2.73Zm-36.64-30.89a2.51,2.51,0,0,0,1.94.72,2.54,2.54,0,0,0,2-.72,2.49,2.49,0,0,0,.67-1.79,2.58,2.58,0,0,0-.67-1.81,2.51,2.51,0,0,0-2-.74,2.48,2.48,0,0,0-1.94.74,2.62,2.62,0,0,0-.66,1.81A2.52,2.52,0,0,0,472.61,223.73Zm4.12,5.06h-4.42v25.83h4.42ZM463,228.65a4.49,4.49,0,0,0-2-.34,6.88,6.88,0,0,0-6.16,3.47l-.07-3h-4.3v25.83h4.42V236.29c1-2.47,3-3.7,5.89-3.7a13.32,13.32,0,0,1,2.17.16Zm-28.7,5.14a8.45,8.45,0,0,1,1.81,5.22v.33H423.16a9.37,9.37,0,0,1,2.24-5.45,5.88,5.88,0,0,1,4.49-1.95A5.56,5.56,0,0,1,434.28,233.79Zm5.89,16.31-2.69-2.1a9.87,9.87,0,0,1-2.84,2.53,7.71,7.71,0,0,1-4,1,7,7,0,0,1-5.42-2.35A9.2,9.2,0,0,1,423,243h17.5v-1.84q0-6.18-2.8-9.5a9.67,9.67,0,0,0-7.82-3.32,10.3,10.3,0,0,0-5.72,1.71,11.35,11.35,0,0,0-4.1,4.73,15.47,15.47,0,0,0-1.47,6.86v.81a12.8,12.8,0,0,0,3.29,9.22,11.3,11.3,0,0,0,8.55,3.45Q436.92,255.09,440.17,250.1Zm-37,.37a7.09,7.09,0,0,1-4,1,6.86,6.86,0,0,1-4.38-1.3,4.57,4.57,0,0,1-1.78-3.52h-4.41a7.44,7.44,0,0,0,1.34,4.26,9,9,0,0,0,3.74,3.06,12.88,12.88,0,0,0,5.49,1.1,11.55,11.55,0,0,0,7.18-2.09,6.59,6.59,0,0,0,2.77-5.54,6.06,6.06,0,0,0-1-3.52,7.69,7.69,0,0,0-3-2.47,23.46,23.46,0,0,0-5.36-1.77,15.5,15.5,0,0,1-4.57-1.55,2.69,2.69,0,0,1-1.27-2.41,3.33,3.33,0,0,1,1.36-2.75,6.07,6.07,0,0,1,3.78-1.05,5.73,5.73,0,0,1,3.87,1.32,4,4,0,0,1,1.54,3.12h4.44a7.21,7.21,0,0,0-2.73-5.8,10.8,10.8,0,0,0-7.12-2.27,10.52,10.52,0,0,0-6.87,2.2,6.68,6.68,0,0,0-2.68,5.37,5.68,5.68,0,0,0,.94,3.29,7.55,7.55,0,0,0,2.91,2.39,22.38,22.38,0,0,0,5.33,1.72,13.06,13.06,0,0,1,4.7,1.71,3.24,3.24,0,0,1,1.35,2.78A3.1,3.1,0,0,1,403.15,250.47Z"/><path d="M544.54,280.65a4.49,4.49,0,0,0-1.95-.34,6.88,6.88,0,0,0-6.16,3.47l-.07-3h-4.3v25.83h4.42V288.29c1-2.47,3-3.7,5.89-3.7a13.32,13.32,0,0,1,2.17.16Zm-28.7,5.14a8.45,8.45,0,0,1,1.81,5.22v.33H504.72a9.37,9.37,0,0,1,2.24-5.45,5.88,5.88,0,0,1,4.49-1.95A5.56,5.56,0,0,1,515.84,285.79Zm5.89,16.31L519,300a10,10,0,0,1-2.84,2.53,7.71,7.71,0,0,1-4,1,7,7,0,0,1-5.43-2.35,9.25,9.25,0,0,1-2.23-6.17h17.5v-1.84q0-6.18-2.8-9.5a9.67,9.67,0,0,0-7.82-3.32,10.3,10.3,0,0,0-5.72,1.71,11.35,11.35,0,0,0-4.1,4.73,15.47,15.47,0,0,0-1.47,6.86v.81a12.8,12.8,0,0,0,3.29,9.22,11.29,11.29,0,0,0,8.55,3.45Q518.48,307.09,521.73,302.1ZM484.49,301a6,6,0,0,1-5,2.52,6.53,6.53,0,0,1-6.07-3.53V287.62a6.51,6.51,0,0,1,6-3.56,6,6,0,0,1,5.11,2.53,11.44,11.44,0,0,1,1.86,6.9Q486.37,298.46,484.49,301Zm6.29-7.39q0-6.24-2.71-9.76a8.79,8.79,0,0,0-7.36-3.51,9.09,9.09,0,0,0-7.49,3.35l-.22-2.87h-4v35.75h4.41V304.11a9.48,9.48,0,0,0,7.4,3,8.66,8.66,0,0,0,7.31-3.6q2.69-3.6,2.69-9.5ZM457,270H452.6v36.66H457Zm-21,15.83a8.45,8.45,0,0,1,1.81,5.22v.33H424.88a9.37,9.37,0,0,1,2.24-5.45,5.88,5.88,0,0,1,4.49-1.95A5.56,5.56,0,0,1,436,285.79Zm5.89,16.31-2.7-2.1a9.74,9.74,0,0,1-2.84,2.53,7.64,7.64,0,0,1-4,1,7,7,0,0,1-5.43-2.35,9.25,9.25,0,0,1-2.23-6.17h17.5v-1.84q0-6.18-2.8-9.5a9.67,9.67,0,0,0-7.82-3.32,10.3,10.3,0,0,0-5.72,1.71,11.35,11.35,0,0,0-4.1,4.73,15.47,15.47,0,0,0-1.47,6.86v.81a12.8,12.8,0,0,0,3.29,9.22,11.28,11.28,0,0,0,8.54,3.45Q438.65,307.09,441.89,302.1ZM394.05,270h-4.42v36.66h4.42V288.21a7.63,7.63,0,0,1,2.53-3,6.31,6.31,0,0,1,3.77-1.15,5.13,5.13,0,0,1,3.9,1.34,6,6,0,0,1,1.27,4.13v17.09h4.42V289.55q-.07-9.24-8.26-9.24a9.38,9.38,0,0,0-7.63,3.61Z"/><path d="M686.61,176.62a20.73,20.73,0,0,1-14.89,6.25,20.21,20.21,0,0,1-14.9-6.25,24,24,0,0,1-6.08-16.49c0-6.73,2.24-12.49,6.08-16.49a19.31,19.31,0,0,1,14.9-6.57,19.79,19.79,0,0,1,14.89,6.57,23.54,23.54,0,0,1,6.24,16.49A24.13,24.13,0,0,1,686.61,176.62Zm23.22-48a8.58,8.58,0,0,0-8.49-8.64c-4.16,0-7.37,3-8.33,7a36.5,36.5,0,0,0-21.29-7,36.88,36.88,0,0,0-27.23,12,40.41,40.41,0,0,0-10.89,28.18,41,41,0,0,0,10.89,28.18A37.21,37.21,0,0,0,671.72,200,36.31,36.31,0,0,0,693,193.11a8.72,8.72,0,0,0,8.33,6.89,8.55,8.55,0,0,0,8.49-8.49V128.58ZM570.84,200a8.91,8.91,0,0,0,9-8.81V177.1l8.81-8.81,23.54,28.51a8.63,8.63,0,0,0,12.33,1.12,8.89,8.89,0,0,0,1.28-12.49L601.1,155.81l24-24a8.71,8.71,0,0,0,0-12.49,9,9,0,0,0-12.49,0L579.8,152.12V96.72a8.92,8.92,0,0,0-9-8.81A8.79,8.79,0,0,0,562,96.72v94.47A8.78,8.78,0,0,0,570.84,200Zm-81.67,0a8.92,8.92,0,0,0,9-8.81V177.1l8.81-8.81,23.54,28.51a8.62,8.62,0,0,0,12.32,1.12,8.88,8.88,0,0,0,1.29-12.49l-24.66-29.62,24-24a8.71,8.71,0,0,0,0-12.49,9,9,0,0,0-12.49,0l-32.83,32.82V96.72a8.92,8.92,0,0,0-9-8.81,8.78,8.78,0,0,0-8.8,8.81v94.47A8.78,8.78,0,0,0,489.17,200Zm-55.4-23.38a20.71,20.71,0,0,1-14.89,6.25A20.18,20.18,0,0,1,404,176.62a24,24,0,0,1-6.09-16.49c0-6.73,2.25-12.49,6.09-16.49a19.29,19.29,0,0,1,14.89-6.57,19.77,19.77,0,0,1,14.89,6.57A23.54,23.54,0,0,1,440,160.13,24.14,24.14,0,0,1,433.77,176.62Zm23.22-48a8.57,8.57,0,0,0-8.49-8.64c-4.16,0-7.36,3-8.32,7a36.38,36.38,0,0,0-48.52,5,40.37,40.37,0,0,0-10.89,28.18,41,41,0,0,0,10.89,28.18A37.17,37.17,0,0,0,418.88,200a36.34,36.34,0,0,0,21.3-6.89A8.71,8.71,0,0,0,448.5,200a8.54,8.54,0,0,0,8.49-8.49V128.58Z"/><path d="M280.51,291.12C249.8,275.24,211.76,275.31,182,279.2l-.66.09-3.52.5c-4.19.61-8.2,1.29-12,2-1.44.27-2.84.55-4.21.83s-2.92.61-4.31.92c31.24-27.5,36-32.33,36-32.33,5.7-5.26,14.64-9.95,22.32-11.06.87-.12,1.78-.24,2.73-.34,9.18-.95,23.53-.3,33.27,2.53l.07,0,.11,0a44.33,44.33,0,0,1,12.74,6.4c2.18,1.58,5.87,4.65,7.52,6.05-.11.39-.19.78-.27,1.18a35.9,35.9,0,0,0-.73,5.29v.06c0,.42,0,.84,0,1.25v.8c0,.4,0,.85,0,1.34,0,.18,0,.41,0,.68v.18c0,.22,0,.44,0,.66s0,.38,0,.5v.13c0,.37.07.74.12,1.1v.11a5.58,5.58,0,0,0,.08.57c0,.36.1.72.17,1.08a7.85,7.85,0,0,0,.14.78c.08.41.16.81.25,1.19a10.59,10.59,0,0,0,.28,1.12c.09.36.19.69.28,1,.14.48.28.92.43,1.35.22.68.44,1.27.68,1.85.1.25.22.5.35.75l1.76,3.58C276.86,283.71,279,288.11,280.51,291.12Z"/><rect class="cls-1" x="189.3" y="244.66" width="0.01" height="0.01"/><polygon class="cls-1" points="189.33 244.65 189.32 244.66 189.32 244.65 189.33 244.65"/><path class="cls-2" d="M247.81,190.53c-1.84-3.72-3.69-7.51-5.47-11.13l-1.12-2.29-.89-1.79c-.37-.74-.71-1.47-1.07-2.17-1.89-3.85-3.58-7.27-4.89-9.93-6-12.14-9.45-22.43-1.94-33.63a17.83,17.83,0,0,1,2.39-2.93c.32-.33.65-.63,1-.92l.47-.39.17-.14.56-.43a29.66,29.66,0,0,1,7.32-3.71l-.23.05H244c-5.23,1.21-15.36,9-18.76,11.82L113.57,226.49c-4.79,4-1.5,11.52,4.76,11.52h55.45c13.46,0,26.48-3.54,36.68-12.34l32.76-28.25,5.61-4.84C248.5,191.91,248.16,191.22,247.81,190.53Z"/><path class="cls-2" d="M185.72,246.57s-58.24,50.82-64.47,54.25a66,66,0,0,1-11,5l-.6.2-1.26.37-.54.14c-.27.07-.54.15-.82.2l-.82.19a28.9,28.9,0,0,1-4.72.53H99.79A29.79,29.79,0,0,1,81.11,255l.66-.55h0l2.36-1.7a37.63,37.63,0,0,1,19.06-6.19h82.52Z"/><path d="M249,234.27a2.15,2.15,0,0,1-.6-.1c-8.65-2.38-17.87-2.5-24.55-2.11l-1.11.07-.95.07c-1.39.11-2.63.24-3.68.36l-.9.11c-.45.06-.86.11-1.21.17l-.46.06-1.19.19h-.1l0,0c.27-.25,22.21-19,24.44-21l0,0a2.31,2.31,0,0,1,1.42-.56,2.43,2.43,0,0,1,1.95.78,2.78,2.78,0,0,1,.4.59c.5,1,1.18,2.4,2,4l.93,1.86c2,4.07,4.38,8.9,5.93,12A2.41,2.41,0,0,1,249,234.27Z"/><path d="M321.79,230.33l-.06,0c-.6-.25-1.23-.48-2-.73-.31-.11-.63-.22-1-.32l-.22-.06-.16-.05-.59-.17-.82-.2-.18-.05-.1,0h-.05l-.81-.2h-.05c-.83-.19-1.64-.33-2.44-.45a37,37,0,0,0-5.46-.41h-1.45c-.32,0-.76,0-1.28.07s-.89,0-1.31.1a37.69,37.69,0,0,0-16,5.48,34.31,34.31,0,0,0-3.37,2.39c-.3.23-.72.57-1.15,1a34.76,34.76,0,0,0-8.28,10.43l-.85-.66A60,60,0,0,1,257,225.47l-4-8.16,0-.07-.16-.33-.24-.51,0-.12a27.1,27.1,0,0,1-.14-20.09,1.53,1.53,0,0,1,.11-.27c.1-.28.22-.57.34-.84s.21-.51.34-.76.2-.45.32-.69l.22-.43q.44-.84.93-1.65c.31-.54.66-1.06,1-1.57.18-.27.37-.54.57-.79s.38-.52.59-.78.25-.31.41-.49l.36-.43.12-.14.21-.24L258,187l.07-.08v0c.22-.24.45-.48.67-.7a26,26,0,0,1,2.26-2.08c.17-.12.32-.26.48-.38l.49-.37c.32-.24.67-.47,1-.71l.56-.38,1.18-.73c.67-.37,1.35-.73,2.06-1.05a29.54,29.54,0,0,1,12.93-2.62c.38,0,.79,0,1.19.05.65,0,1.29.1,1.93.17a6.5,6.5,0,0,1,.77.12l.83.14c.54.1,1.08.21,1.62.34a26.9,26.9,0,0,1,10.26,4.88c.25.19.51.4.76.63a24.38,24.38,0,0,1,3.92,4.38l0,0c.31.44.58.88.85,1.33Z"/><path class="cls-3" d="M343.17,281.92c-.06.93-.17,1.84-.31,2.74s-.34,1.77-.57,2.64c-.12.43-.24.86-.37,1.28s-.21.65-.33,1-.17.48-.27.71-.11.28-.17.42-.17.43-.26.64-.29.64-.44.95c-.38.79-.79,1.55-1.24,2.29s-.94,1.47-1.45,2.16c-.26.35-.52.69-.8,1a12.81,12.81,0,0,1-.84,1c-.28.32-.57.64-.88,1s-.92.91-1.39,1.33-1,.88-1.57,1.29l-.78.57-.23.16c-.33.24-.66.47-1,.68l-.09.06q-.51.33-1.05.63c-.36.21-.72.4-1.09.59l-.09,0c-.37.19-.74.37-1.12.54l-.72.31-.63.26-1.07.4a26.18,26.18,0,0,1-2.52.75l-.91.2-.22,0-.3.07-.93.16h-.07l-.44.06-.78.1-.44,0c-.44,0-.89.07-1.34.09s-.79,0-1.19,0q-.91,0-1.86-.06a21.84,21.84,0,0,1-2.3-.15h-.06a24.94,24.94,0,0,1-15.34-7l0,0a25.09,25.09,0,0,1-4.47-6.11c-.63-1.22-2.11-4.31-2.71-5.49-1.37-2.79-4.23-8.6-5.59-11.34l-1.84-3.75,0-.06a14.33,14.33,0,0,1-.51-1.38c-.23-.66-.42-1.31-.6-2a4.8,4.8,0,0,1-.15-.63c-.1-.39-.18-.78-.25-1.18a4.37,4.37,0,0,1-.09-.5,8.84,8.84,0,0,1-.14-.92l0-.17c0-.34-.09-.7-.12-1.06,0-.15,0-.3,0-.45s0-.6-.06-.91c0-.11,0-.22,0-.33,0-.37,0-.75,0-1.14s0-1.06.06-1.6a29.36,29.36,0,0,1,.59-4.22,10.2,10.2,0,0,1,.27-1.09c.08-.36.19-.7.29-1a26.8,26.8,0,0,1,8.43-12.87,10,10,0,0,1,.79-.67,26.68,26.68,0,0,1,2.63-1.87,29.51,29.51,0,0,1,12.64-4.31c.35,0,.69-.06,1-.07a9.69,9.69,0,0,1,1.06-.06h1.08a28.08,28.08,0,0,1,4.29.33,25.69,25.69,0,0,1,2.56.5l.12,0,.36.09a3.74,3.74,0,0,1,.48.12,1.81,1.81,0,0,1,.31.09,2,2,0,0,1,.3.09l.12,0c.22.06.45.13.66.21.54.18,1.07.37,1.6.59a18.26,18.26,0,0,1,1.73.8c.26.12.51.25.77.4l.09.05c.24.13.47.27.7.42l.1,0a23.15,23.15,0,0,1,2.19,1.54l.63.51.06,0,.06.06.12.11c.31.25.62.54.91.81a3.82,3.82,0,0,1,.36.34c.18.17.34.33.51.51a28.35,28.35,0,0,1,4,5.52l2,4,.7,1.43,1.16,2.36c1.56,3.17,3.36,6.79,4.56,9.22A28.33,28.33,0,0,1,343.17,281.92Z"/><polygon class="cls-4" points="311.06 307.88 311.08 307.88 311.11 307.88 311.06 307.88"/><path class="cls-5" d="M247.81,190.53c-1.84-3.72-3.69-7.51-5.47-11.13l-1.12-2.29-.89-1.79c-.37-.74-.71-1.47-1.07-2.17-1.89-3.85-3.58-7.27-4.89-9.93-3.66-7.38-6.36-14.07-6.23-20.7a23.46,23.46,0,0,1,4.29-12.93,17.33,17.33,0,0,1,2.39-2.93c.13-.14.27-.27.41-.4s.47-.43.71-.63l.51-.42c.18-.15.37-.29.56-.43a29.66,29.66,0,0,1,7.32-3.71l-.29.06-.08,0c-5.26,1.27-15.3,9-18.68,11.8l-20.19,16.91,37.32,48.26.81-.7.13-.11,5.48-4.73C248.5,191.91,248.16,191.22,247.81,190.53Z"/><path class="cls-2" d="M302.07,190.3l-.18-.3c-.27-.45-.54-.89-.85-1.33l0,0a24.38,24.38,0,0,0-3.92-4.38c-.25-.23-.51-.44-.76-.63-.43-.36-.87-.69-1.32-1-.22-.15-.46-.32-.7-.45a10.57,10.57,0,0,0-.91-.56,27.08,27.08,0,0,0-7.33-2.87c-.54-.13-1.08-.25-1.62-.34l-.84-.14c-.34-.06-.68-.1-1-.15-.55-.06-1.1-.12-1.66-.14-.4,0-.81-.05-1.19-.05a29.54,29.54,0,0,0-12.93,2.62,17.7,17.7,0,0,0-1.94,1l-.95.56-.89.6-1,.72c-.16.1-.32.24-.49.37s-.31.26-.48.38a26,26,0,0,0-2.26,2.08c-.22.22-.45.46-.67.7v0c-.44.47-.86,1-1.25,1.46-.21.26-.4.52-.59.78s-.39.52-.57.79c-.36.51-.71,1-1,1.57s-.64,1.09-.93,1.65l-.22.43c-.12.24-.23.47-.32.69s-.24.51-.34.76-.24.56-.34.84a1.53,1.53,0,0,0-.11.27,27.1,27.1,0,0,0,.14,20.09h0l0-.08-.05-.09-.31-.61-.06-.11-.06-.14-1.24-2.52c-.14-.27-.27-.52-.39-.79l-.42-.85-.27-.54a1.68,1.68,0,0,1-.15-.3l-.75-1.53-.13-.26-.06-.14-.08-.12,0-.07-.07-.17-.36-.72-.08-.15-.21-.43-.76-1.54-.1-.21-.35-.7-.39-.8v0l-.31-.61-.29-.58L244.48,200l-1-2c-.33-.67-.67-1.36-1-2.05-1.84-3.72-3.69-7.51-5.47-11.13l-1.12-2.29-.89-1.79c-.37-.74-.71-1.47-1.07-2.17-1.89-3.85-3.58-7.27-4.89-9.93a37.8,37.8,0,0,1,2.4-37.8,23.76,23.76,0,0,1,11.76-9.38l0,0a36.64,36.64,0,0,1,5.88-1.39c8.87-1.3,17.69,1,22.34,8.39l2,4.1,2.61,5.26,1.66,3.34,1.7,3.43c.29.59.58,1.19.88,1.79l1.82,3.7c.32.63.63,1.25.95,1.9l1.91,3.86c2.26,4.57,4.58,9.27,6.84,13.82.48,1,.95,1.94,1.43,2.9s.95,1.91,1.41,2.86l1,2.08c.3.59.58,1.19.88,1.78l0,0,.75,1.52.64,1.32L299,184l.46.93c.15.31.29.61.44.91s.21.4.3.59.19.4.28.59.29.58.43.86l.42.84c.13.28.27.55.4.82s.26.53.38.79"/><path class="cls-6" d="M264.41,122c-1-.08-2-.12-3-.11l-1.46,0-1,.07h-.08l-.67.06c-.48,0-1,.1-1.44.18l-.5.07-.83.14h-.06a23.58,23.58,0,0,0-6.57,2.51c-.21.11-.41.23-.61.35a6.53,6.53,0,0,0-.56.35c-.27.16-.54.35-.79.53a5.48,5.48,0,0,0-.46.34,23.42,23.42,0,0,0-3.93,3.62,37.76,37.76,0,0,0-7.52,37.12c.93,2.81,2.14,6.43,3.49,10.5.26.74.5,1.51.77,2.3l.63,1.89c.27.79.53,1.6.8,2.42,1.27,3.83,2.59,7.84,3.91,11.77.18.54.37,1.09.54,1.62.07.19.13.37.19.55l.71,2.15.07.21,0,0,.68,2.1.21.61.22.65v0l.28.84.25.74.07.23.54,1.62.15.46,0,.12-.07-.17-.36-.72-.08-.15-.21-.43-.76-1.54-.1-.21-.35-.7-.39-.8v0l-.31-.61-.29-.58-1-2,0,0-.1-.2-1-2c-.08-.17-.17-.34-.26-.52-.24-.5-.5-1-.76-1.53-1.84-3.72-3.69-7.51-5.47-11.13l-1.12-2.29-.89-1.79c-.37-.74-.71-1.47-1.07-2.17-1.89-3.85-3.58-7.27-4.89-9.93a37.8,37.8,0,0,1,2.4-37.8,24.14,24.14,0,0,1,3.4-4.12c.13-.14.27-.27.41-.4s.47-.43.71-.63l.51-.42c.18-.15.37-.29.56-.43a23.55,23.55,0,0,1,6.17-3.38l0,0,.81-.25.48-.14c.47-.14.94-.26,1.41-.37l.65-.15h.08c.34-.07.67-.15,1-.21s1-.18,1.44-.25a25.75,25.75,0,0,1,15.3,2"/><path class="cls-7" d="M316.68,237c-.17,0-.35,0-.52-.06l-.8-.07-.28,0a7.4,7.4,0,0,0-1.06,0c-.36,0-.7,0-1,0a28.32,28.32,0,0,0-13,3.39,26.25,26.25,0,0,0-2.81,1.74,10.49,10.49,0,0,0-.85.64,28.86,28.86,0,0,0-9.7,12.88c-.13.36-.28.71-.39,1.08a11.72,11.72,0,0,0-.38,1.14,34,34,0,0,0-1,4.43c-.08.57-.15,1.14-.22,1.69s-.08.82-.09,1.22c0,.12,0,.23,0,.35,0,.33,0,.65,0,1,0,.16,0,.33,0,.49,0,.38,0,.77,0,1.13v.19c0,.33,0,.68.05,1a3.35,3.35,0,0,0,0,.54c0,.43.06.85.12,1.28a5.52,5.52,0,0,0,.09.68c.11.72.24,1.43.4,2.15a13.46,13.46,0,0,0,.37,1.52l0,.07,1.45,4.16c1.08,3,3.34,9.49,4.42,12.59.48,1.31,1.64,4.74,2.14,6.09l.18.45a24.84,24.84,0,0,1-2.52-3.9c-.63-1.22-2.11-4.31-2.71-5.49-1.37-2.79-4.23-8.6-5.59-11.34l-1.84-3.75,0-.06a14.33,14.33,0,0,1-.51-1.38c-.23-.66-.42-1.31-.6-2a4.8,4.8,0,0,1-.15-.63c-.1-.39-.18-.78-.25-1.18a4.37,4.37,0,0,1-.09-.5,8.84,8.84,0,0,1-.14-.92l0-.17c0-.34-.09-.7-.12-1.06,0-.15,0-.3,0-.45s0-.6-.06-.91c0-.11,0-.22,0-.33,0-.37,0-.75,0-1.14s0-1.06.06-1.6a29.36,29.36,0,0,1,.59-4.22,10.2,10.2,0,0,1,.27-1.09c.08-.36.19-.7.29-1a26.8,26.8,0,0,1,8.43-12.87,10,10,0,0,1,.79-.67,26.68,26.68,0,0,1,2.63-1.87,29.51,29.51,0,0,1,12.64-4.31c.35,0,.69-.06,1-.07a9.69,9.69,0,0,1,1.06-.06h1.08a28.08,28.08,0,0,1,4.29.33,25.69,25.69,0,0,1,2.56.5l.12,0,.36.09a3.74,3.74,0,0,1,.48.12,1.81,1.81,0,0,1,.31.09,2,2,0,0,1,.3.09l.12,0Z"/><path class="cls-8" d="M251.36,212.69a23.64,23.64,0,0,1-.56-3l0,.08a8.84,8.84,0,0,0,.14.92,4.37,4.37,0,0,0,.09.5c.07.4.15.79.25,1.18C251.31,212.47,251.34,212.58,251.36,212.69Z"/><path class="cls-9" d="M252.05,215c-.23-.66-.44-1.31-.6-2C251.63,213.66,251.82,214.31,252.05,215Z"/><path class="cls-10" d="M242.07,212.34,223.8,232.06l-1.11.07-.95.07c-1.39.11-2.63.24-3.68.36l-.9.11c-.45.06-.86.11-1.21.17l-.46.06-1.19.19h-.1l0,0c.27-.25,22.21-19,24.44-21l0,0a2.31,2.31,0,0,1,1.42-.56A2.43,2.43,0,0,1,242.07,212.34Z"/><path class="cls-10" d="M292.24,181a31.88,31.88,0,0,0-13.78,1.4c-.8.27-1.57.57-2.32.89l-1.35.65c-.2.12-.42.23-.64.35L273,185l-.56.34c-.19.11-.36.24-.56.35a29.18,29.18,0,0,0-2.64,2c-.26.21-.54.44-.8.68v0l-.09.07-.09.08-.25.23-.15.14-.43.42c-.19.17-.36.34-.49.48s-.49.51-.72.77-.47.51-.7.78c-.44.5-.87,1-1.26,1.56s-.81,1.09-1.18,1.66c-.09.13-.2.31-.28.44a74,74,0,0,0-.87,1.47c-.16.28-.32.58-.46.86a1.91,1.91,0,0,0-.15.28,29.14,29.14,0,0,0-2.09,21.5l0,.13.2.57.13.37,0,.08s1.58,4.29,3.38,9.17a64.43,64.43,0,0,0,6.73,13.24A60,60,0,0,1,257,225.47l-4-8.16,0-.07-.16-.33-.24-.51,0-.12a27.1,27.1,0,0,1-.14-20.09,1.53,1.53,0,0,1,.11-.27c.1-.28.22-.57.34-.84s.21-.51.34-.76.2-.45.32-.69l.22-.43q.44-.84.93-1.65c.31-.54.66-1.06,1-1.57.18-.27.37-.54.57-.79s.38-.52.59-.78.25-.31.41-.49l.36-.43.12-.14.21-.24L258,187l.07-.08v0c.22-.24.45-.48.67-.7a26,26,0,0,1,2.26-2.08c.17-.12.32-.26.48-.38l.49-.37c.32-.24.67-.47,1-.71l.56-.38,1.18-.73c.67-.37,1.35-.73,2.06-1.05a29.54,29.54,0,0,1,12.93-2.62c.38,0,.79,0,1.19.05.65,0,1.29.1,1.93.17a6.5,6.5,0,0,1,.77.12l.83.14c.54.1,1.08.21,1.62.34A28.17,28.17,0,0,1,292.24,181Z"/><path class="cls-11" d="M253.11,217.48l-.08-.16Z"/><path class="cls-12" d="M256.78,224.93l-1-2.05C256.09,223.53,256.44,224.22,256.78,224.93Z"/><path class="cls-13" d="M260.36,184.73l-.17.16-.44.38C260,185.09,260.15,184.9,260.36,184.73Z"/><path class="cls-14" d="M277.48,178l-.18,0-.53,0C277,178,277.24,178,277.48,178Z"/><path class="cls-15" d="M250.58,204.92c0,.35,0,.71,0,1.07v-.28Z"/><path class="cls-16" d="M252.59,216.4l0-.05a11.65,11.65,0,0,1-.42-1.12c.13.35.26.7.41,1.05Z"/><path class="cls-10" d="M218.39,239.82,182,279.2l-.66.09-3.52.5c-4.19.61-8.2,1.29-12,2-1.44.27-2.84.55-4.21.83s-2.92.61-4.31.92c31.24-27.5,36-32.33,36-32.33,5.7-5.26,14.64-9.95,22.32-11.06C216.53,240,217.44,239.92,218.39,239.82Z"/><path class="cls-17" d="M233.79,129.27a36.55,36.55,0,0,0-4.37,38.25c1.28,2.76,2.94,6.32,4.79,10.32.36.73.69,1.49,1,2.26.29.6.58,1.23.88,1.86l1.09,2.38c1.75,3.76,3.56,7.7,5.36,11.57.26.53.51,1.07.75,1.59.09.19.18.37.25.54l1,2.11-.1-.19-1-2c-.08-.17-.17-.34-.26-.52-.24-.5-.5-1-.76-1.53-1.84-3.72-3.69-7.51-5.47-11.13l-1.12-2.29-.89-1.79c-.37-.74-.71-1.47-1.07-2.17-1.89-3.85-3.58-7.27-4.89-9.93a37.8,37.8,0,0,1,2.4-37.8,24.14,24.14,0,0,1,3.4-4.12c.13-.14.27-.27.41-.4s.47-.43.71-.63l.51-.42c.18-.15.37-.29.56-.43a23.55,23.55,0,0,1,6.17-3.38l0,0,.81-.25.48-.14c.47-.14.94-.26,1.41-.37l.42-.1a26.26,26.26,0,0,0-6.25,2.95l-.63.41-.57.4c-.26.19-.53.4-.79.61s-.31.25-.46.38a25.34,25.34,0,0,0-3.86,4"/><path class="cls-18" d="M264.33,121.93l.08,0h0l-.08,0"/><path class="cls-19" d="M263.91,121.73h-.17l-.73,0c-.42,0-.85,0-1.28.09.9,0,1.8,0,2.68.11l-.08,0-.42-.2"/><polyline class="cls-20" points="244.63 200.28 244.67 200.37 244.69 200.41 244.65 200.32 244.63 200.28"/><polyline class="cls-21" points="244.61 200.23 244.63 200.28 244.65 200.32 244.61 200.23"/><path class="cls-22" d="M307.91,235.63h.31a5,5,0,0,0-.77,0c-.37,0-.71,0-1.07.06a30.1,30.1,0,0,0-13,4.28,26.69,26.69,0,0,0-2.71,1.88,10.56,10.56,0,0,0-.82.68,27.43,27.43,0,0,0-8.76,13.08c-.11.35-.23.69-.31,1.06a11.34,11.34,0,0,0-.29,1.11,30.59,30.59,0,0,0-.65,4.32c0,.55-.05,1.1-.08,1.63s0,.79,0,1.17c0,.11,0,.22,0,.34,0,.31,0,.62.05.93,0,.15,0,.31,0,.46,0,.37.07.74.11,1.08l0,.18a7.09,7.09,0,0,0,.13.94,4.17,4.17,0,0,0,.09.51,12.32,12.32,0,0,0,.24,1.21,4.72,4.72,0,0,0,.15.65c.17.68.36,1.35.59,2a14.11,14.11,0,0,0,.51,1.42l0,.06,1.84,3.86c1.36,2.82,4.23,8.79,5.6,11.66.6,1.22,2.08,4.4,2.71,5.65.08.16.17.32.26.48-.35-.54-.67-1.1-1-1.68-.63-1.22-2.11-4.31-2.71-5.49-1.37-2.79-4.23-8.6-5.59-11.34l-1.84-3.75,0-.06a14.33,14.33,0,0,1-.51-1.38c-.23-.66-.42-1.31-.6-2a4.8,4.8,0,0,1-.15-.63c-.1-.39-.18-.78-.25-1.18a4.37,4.37,0,0,1-.09-.5,8.84,8.84,0,0,1-.14-.92l0-.17c0-.34-.09-.7-.12-1.06,0-.15,0-.3,0-.45s0-.6-.06-.91c0-.11,0-.22,0-.33,0-.37,0-.75,0-1.14s0-1.06.06-1.6a29.36,29.36,0,0,1,.59-4.22,10.2,10.2,0,0,1,.27-1.09c.08-.36.19-.7.29-1a26.8,26.8,0,0,1,8.43-12.87,10,10,0,0,1,.79-.67,26.68,26.68,0,0,1,2.63-1.87,29.51,29.51,0,0,1,12.64-4.31c.35,0,.69-.06,1-.07a9.69,9.69,0,0,1,1.06-.06h1.08Z"/><path class="cls-6" d="M117.67,302.7a59.51,59.51,0,0,1-7.44,3.13l-.61.19c-.42.14-.85.26-1.26.38l-.53.14-.82.2-.83.18a28.67,28.67,0,0,1-4.71.54H99.78A29.8,29.8,0,0,1,81.11,255l.65-.56h0l2.37-1.7a37.58,37.58,0,0,1,19-6.18h8a35.59,35.59,0,0,0-18,5.85L91,254h0l-.62.52A28.19,28.19,0,0,0,108,304.16h1.59a26.61,26.61,0,0,0,4.46-.51l.78-.17.78-.19c.18-.05.34-.1.51-.13l1.19-.36Z"/><path class="cls-23" d="M81.67,299.18a30.26,30.26,0,0,0,12.8,7.66A29.79,29.79,0,0,1,81.11,255l.65-.56h0l2.37-1.7a37.86,37.86,0,0,1,13-5.43,38.77,38.77,0,0,0-10.62,4.88l-2.41,1.74h0l-.68.57A30.51,30.51,0,0,0,81.67,299.18Z"/><path class="cls-24" d="M239.55,211.66l-21.8,20.94c-2.24.27-3.55.51-3.55.51l0,0c.27-.25,22.21-19,24.44-21A2.35,2.35,0,0,1,239.55,211.66Z"/><path class="cls-24" d="M202.49,244.8l-39,37.46q-3.19.64-6.12,1.29c31.24-27.5,36-32.33,36-32.33A45.78,45.78,0,0,1,202.49,244.8Z"/><path class="cls-6" d="M225.28,133,113.57,226.49c-4.79,4-1.5,11.52,4.76,11.52h42.15l-26.22-.1c-6.2,0-9.24-5.56-4.5-10l103.48-99.44a16.15,16.15,0,0,1,1.58-1.8c.32-.33.65-.63,1-.92l.47-.39.17-.14.56-.43.2-.14.83-.8A106.77,106.77,0,0,0,225.28,133Z"/><path class="cls-23" d="M116.05,227.06l77.7-67.71-80.18,67.14c-4.35,3.65-2,10.18,3.12,11.34A6.88,6.88,0,0,1,116.05,227.06Z"/></svg>