<svg id="Layer_1" data-name="Layer 1" xmlns="http://www.w3.org/2000/svg" xmlns:xlink="http://www.w3.org/1999/xlink" viewBox="0 0 600 600"><defs><style>.cls-1{fill:#0b5567;}.cls-2{fill:#848484;}.cls-3{fill:#515151;}.cls-4{fill:#fff;}.cls-5{fill:#7c7c7c;}.cls-6{fill:#8c8c8c;}.cls-7{fill:#5e5e5e;}.cls-8{fill:url(#linear-gradient);}.cls-9{fill:url(#linear-gradient-2);}.cls-10{fill:#1e1e1e;}.cls-11{fill:url(#linear-gradient-3);}.cls-12{fill:url(#linear-gradient-4);}.cls-13{fill:url(#linear-gradient-5);}.cls-14{fill:url(#linear-gradient-6);}.cls-15{fill:url(#linear-gradient-7);}.cls-16{fill:url(#linear-gradient-8);}.cls-17{fill:#9b9b9b;}.cls-18{fill:url(#linear-gradient-9);}.cls-19{fill:url(#linear-gradient-10);}.cls-20{fill:url(#linear-gradient-11);}.cls-21{fill:url(#linear-gradient-12);}.cls-22{fill:#727272;}.cls-23{fill:#a0a0a0;}.cls-24{fill:#3f3f3f;}</style><linearGradient id="linear-gradient" x1="-200" y1="-1972.15" x2="-199" y2="-1972.15" gradientTransform="matrix(0.56, 0, 0, -0.56, 455.68, -902.24)" gradientUnits="userSpaceOnUse"><stop offset="0" stop-color="#1291b0"/><stop offset="0.13" stop-color="#1291b0"/><stop offset="0.19" stop-color="#1399b9"/><stop offset="0.32" stop-color="#14a2c5"/><stop offset="0.5" stop-color="#15a7cc"/><stop offset="1" stop-color="#15a9ce"/></linearGradient><linearGradient id="linear-gradient-2" y1="-1972.15" x2="-199" y2="-1972.15" gradientTransform="matrix(0.6, 0, 0, -0.6, 464.32, -978.27)" xlink:href="#linear-gradient"/><linearGradient id="linear-gradient-3" y1="-1972.15" x2="-199" y2="-1972.15" gradientTransform="matrix(0.08, 0, 0, -0.08, 362.06, 49.1)" xlink:href="#linear-gradient"/><linearGradient id="linear-gradient-4" y1="-1972.15" x2="-199" y2="-1972.15" gradientTransform="matrix(1.01, 0, 0, -1.01, 550.49, -1775.56)" xlink:href="#linear-gradient"/><linearGradient id="linear-gradient-5" y1="-1972.15" x2="-199" y2="-1972.15" gradientTransform="matrix(0.61, 0, 0, -0.61, 474.58, -1026.67)" xlink:href="#linear-gradient"/><linearGradient id="linear-gradient-6" y1="-1972.15" x2="-199" y2="-1972.15" gradientTransform="matrix(0.71, 0, 0, -0.71, 511.55, -1230.74)" xlink:href="#linear-gradient"/><linearGradient id="linear-gradient-7" y1="-1972.15" x2="-199" y2="-1972.15" gradientTransform="matrix(0.89, 0.69, 0.69, -0.89, 1881.54, -1430.41)" xlink:href="#linear-gradient"/><linearGradient id="linear-gradient-8" y1="-1972.15" x2="-199" y2="-1972.15" gradientTransform="matrix(1.52, 1.17, 1.17, -1.52, 2960.72, -2558.3)" xlink:href="#linear-gradient"/><linearGradient id="linear-gradient-9" x1="-200" y1="-1972.02" x2="-199" y2="-1972.02" gradientTransform="matrix(2.57, 0.88, 0.88, -2.57, 2606.55, -4785.3)" gradientUnits="userSpaceOnUse"><stop offset="0" stop-color="#95deef"/><stop offset="0.13" stop-color="#95deef"/><stop offset="1" stop-color="#8ad4e6"/></linearGradient><linearGradient id="linear-gradient-10" x1="-200" y1="-1972.15" x2="-199" y2="-1972.15" gradientTransform="matrix(2.57, 0.88, 0.88, -2.57, 2606.55, -4785.3)" gradientUnits="userSpaceOnUse"><stop offset="0" stop-color="#5ba5b6"/><stop offset="0.13" stop-color="#5ba5b6"/><stop offset="1" stop-color="#509bad"/></linearGradient><linearGradient id="linear-gradient-11" y1="-1972.34" y2="-1972.34" gradientTransform="matrix(0.13, 0.04, 0.04, -0.13, 452.29, -59.99)" xlink:href="#linear-gradient-9"/><linearGradient id="linear-gradient-12" x1="-200" y1="-1972" x2="-199" y2="-1972" gradientTransform="matrix(0.13, 0.04, 0.04, -0.13, 452.29, -59.99)" gradientUnits="userSpaceOnUse"><stop offset="0" stop-color="#57a1b2"/><stop offset="0.13" stop-color="#57a1b2"/><stop offset="1" stop-color="#4c97a9"/></linearGradient></defs><path d="M391.13,435.74a5.36,5.36,0,0,1,8.5,0,8.78,8.78,0,0,1,1.62,5.51,9.66,9.66,0,0,1-1.59,5.91,5.39,5.39,0,0,1-8.54,0,8.76,8.76,0,0,1-1.6-5.51A9.59,9.59,0,0,1,391.13,435.74ZM386,441.52a11.19,11.19,0,0,0,2.61,7.74,8.66,8.66,0,0,0,6.8,2.92,9.16,9.16,0,0,0,4.94-1.34,8.75,8.75,0,0,0,3.3-3.73,12.31,12.31,0,0,0,1.16-5.41v-.25a11.2,11.2,0,0,0-2.61-7.77,8.69,8.69,0,0,0-6.82-2.93,8.81,8.81,0,0,0-8.19,5.06,12.31,12.31,0,0,0-1.19,5.47Zm-11.92-14.43a2,2,0,0,0,1.56.57,2,2,0,0,0,1.56-.57,2,2,0,0,0,.54-1.43,2.05,2.05,0,0,0-.54-1.45,2,2,0,0,0-1.56-.6,2,2,0,0,0-1.56.6,2.09,2.09,0,0,0-.53,1.45A2,2,0,0,0,374.05,427.09Zm3.29,4.05h-3.53V451.8h3.53Zm-19.26-5v5h-3.76v2.73h3.76v12.81a6.17,6.17,0,0,0,1.2,4.07,4.41,4.41,0,0,0,3.57,1.43,10.49,10.49,0,0,0,2.72-.38V449a8.16,8.16,0,0,1-1.69.23,2.17,2.17,0,0,1-1.75-.62,2.83,2.83,0,0,1-.52-1.86V433.87h3.86v-2.73h-3.86v-5Zm-22.4,22a3.23,3.23,0,0,1-1.1-2.6q0-3.79,6.49-3.8h2.77V446a5.28,5.28,0,0,1-2.16,2.24,6.22,6.22,0,0,1-3.15.86A4.29,4.29,0,0,1,335.68,448.17Zm12.42,3.63v-.31a11.49,11.49,0,0,1-.73-4.52v-9.51a6.44,6.44,0,0,0-2.1-4.92,8.16,8.16,0,0,0-5.59-1.79,10,10,0,0,0-4.14.84,7.63,7.63,0,0,0-3,2.29,4.87,4.87,0,0,0-1.1,3H335a2.82,2.82,0,0,1,1.27-2.32,5.21,5.21,0,0,1,3.17-.95,4.47,4.47,0,0,1,3.27,1.1,4,4,0,0,1,1.11,2.95v1.62H340.4a11.54,11.54,0,0,0-6.9,1.79,5.83,5.83,0,0,0-2.46,5,5.6,5.6,0,0,0,2,4.38,7.32,7.32,0,0,0,5,1.73,7.9,7.9,0,0,0,5.89-2.56,7.35,7.35,0,0,0,.49,2.18Zm-24.92-18.16v-2.5H307.52v2.92h11.23l-11.4,15.14v2.6h16.4v-2.89H311.67Zm-27.69-6.55a2,2,0,0,0,1.55.57,1.9,1.9,0,0,0,2.1-2,2.09,2.09,0,0,0-.53-1.45,2,2,0,0,0-1.57-.6,1.94,1.94,0,0,0-1.55.6,2.09,2.09,0,0,0-.53,1.45A2,2,0,0,0,295.49,427.09Zm3.29,4.05h-3.53V451.8h3.53Zm-13.4-8.67h-3.53V451.8h3.53Zm-25,25.7a3.21,3.21,0,0,1-1.11-2.6q0-3.79,6.49-3.8h2.77V446a5.28,5.28,0,0,1-2.16,2.24,6.22,6.22,0,0,1-3.15.86A4.25,4.25,0,0,1,260.41,448.17Zm12.41,3.63v-.31a11.49,11.49,0,0,1-.73-4.52v-9.51a6.44,6.44,0,0,0-2.1-4.92,8.16,8.16,0,0,0-5.59-1.79,10,10,0,0,0-4.14.84,7.7,7.7,0,0,0-3,2.29,4.86,4.86,0,0,0-1.09,3h3.55a2.81,2.81,0,0,1,1.28-2.32,5.19,5.19,0,0,1,3.17-.95,4.46,4.46,0,0,1,3.26,1.1,4,4,0,0,1,1.11,2.95v1.62h-3.44a11.56,11.56,0,0,0-6.9,1.79,5.82,5.82,0,0,0-2.45,5,5.59,5.59,0,0,0,2,4.38,7.32,7.32,0,0,0,5,1.73,7.9,7.9,0,0,0,5.89-2.56,7.35,7.35,0,0,0,.49,2.18ZM243.5,427.09a2.1,2.1,0,0,0,3.66-1.43,2.05,2.05,0,0,0-.54-1.45,2.33,2.33,0,0,0-3.12,0,2.09,2.09,0,0,0-.53,1.45A2,2,0,0,0,243.5,427.09Zm3.29,4.05h-3.53V451.8h3.53Zm-11-.12a3.6,3.6,0,0,0-1.57-.27,5.5,5.5,0,0,0-4.92,2.77l-.06-2.38h-3.44V451.8h3.53V437.13a4.66,4.66,0,0,1,4.72-3,10.57,10.57,0,0,1,1.74.14Zm-23,4.12a6.66,6.66,0,0,1,1.45,4.17v.27H203.93a7.59,7.59,0,0,1,1.8-4.37,4.71,4.71,0,0,1,3.59-1.55A4.43,4.43,0,0,1,212.83,435.14Zm4.72,13.05-2.16-1.68a8,8,0,0,1-2.27,2,6.18,6.18,0,0,1-3.17.77,5.63,5.63,0,0,1-4.35-1.88,7.35,7.35,0,0,1-1.78-4.94h14V441q0-5-2.23-7.6a7.74,7.74,0,0,0-6.26-2.66,8.27,8.27,0,0,0-4.58,1.37,9.18,9.18,0,0,0-3.28,3.78,12.44,12.44,0,0,0-1.18,5.49V442a10.23,10.23,0,0,0,2.64,7.38,9,9,0,0,0,6.84,2.76A8.68,8.68,0,0,0,217.55,448.19Zm-29.63.29a6.56,6.56,0,0,1-6.72-.22,3.68,3.68,0,0,1-1.42-2.82h-3.53a5.92,5.92,0,0,0,1.08,3.41,7,7,0,0,0,3,2.45,10.38,10.38,0,0,0,4.4.88,9.29,9.29,0,0,0,5.74-1.67,5.27,5.27,0,0,0,2.22-4.44,4.93,4.93,0,0,0-.79-2.82,6.17,6.17,0,0,0-2.44-2,19,19,0,0,0-4.29-1.42,12.33,12.33,0,0,1-3.65-1.24,2.12,2.12,0,0,1-1-1.93,2.65,2.65,0,0,1,1.08-2.19,4.86,4.86,0,0,1,3-.84,4.6,4.6,0,0,1,3.1,1,3.16,3.16,0,0,1,1.24,2.5h3.55a5.76,5.76,0,0,0-2.19-4.64,8.64,8.64,0,0,0-5.7-1.82,8.39,8.39,0,0,0-5.49,1.76,5.38,5.38,0,0,0-2.15,4.3,4.48,4.48,0,0,0,.76,2.63,6,6,0,0,0,2.33,1.91,17.44,17.44,0,0,0,4.26,1.38,10.39,10.39,0,0,1,3.76,1.36,2.61,2.61,0,0,1,1.08,2.23A2.49,2.49,0,0,1,187.92,448.48Z"/><path d="M413.12,431.14V451.8h3.53V437.08a6.21,6.21,0,0,1,2-2.41,5.1,5.1,0,0,1,3-.92,4.11,4.11,0,0,1,3.12,1.07,4.76,4.76,0,0,1,1,3.31V451.8h3.53V438.14q-.06-7.38-6.61-7.39a7.54,7.54,0,0,0-6.18,3l-.12-2.59Z"/><path d="M366.25,472.63a3.52,3.52,0,0,0-1.56-.27,5.5,5.5,0,0,0-4.93,2.77l-.06-2.39h-3.43V493.4h3.53V478.74a4.66,4.66,0,0,1,4.72-3,10.4,10.4,0,0,1,1.73.13Zm-23,4.11a6.77,6.77,0,0,1,1.45,4.18v.26H334.39a7.55,7.55,0,0,1,1.79-4.36,4.72,4.72,0,0,1,3.59-1.56A4.47,4.47,0,0,1,343.29,476.74ZM348,489.79l-2.16-1.67a7.78,7.78,0,0,1-2.27,2,6.12,6.12,0,0,1-3.17.76,5.59,5.59,0,0,1-4.34-1.88,7.33,7.33,0,0,1-1.79-4.93h14v-1.47q0-5-2.23-7.6a7.75,7.75,0,0,0-6.27-2.66,8.27,8.27,0,0,0-4.57,1.37,9.2,9.2,0,0,0-3.29,3.78,12.44,12.44,0,0,0-1.17,5.49v.65a10.23,10.23,0,0,0,2.64,7.38,9,9,0,0,0,6.83,2.76A8.66,8.66,0,0,0,348,489.79Zm-29.79-.9a4.79,4.79,0,0,1-4,2,5.2,5.2,0,0,1-4.85-2.82V478.2a5.2,5.2,0,0,1,4.81-2.84,4.81,4.81,0,0,1,4.09,2,9.15,9.15,0,0,1,1.49,5.52A10,10,0,0,1,318.21,488.89Zm5-5.91q0-5-2.17-7.81a7,7,0,0,0-5.89-2.81,7.29,7.29,0,0,0-6,2.67l-.17-2.29h-3.22v28.61h3.53v-10a7.58,7.58,0,0,0,5.92,2.39,6.91,6.91,0,0,0,5.84-2.89,12.35,12.35,0,0,0,2.16-7.6Zm-27-18.91h-3.53V493.4h3.53ZM279.4,476.74a6.71,6.71,0,0,1,1.45,4.18v.26H270.5a7.56,7.56,0,0,1,1.8-4.36,4.7,4.7,0,0,1,3.59-1.56A4.44,4.44,0,0,1,279.4,476.74Zm4.72,13.05L282,488.12a7.91,7.91,0,0,1-2.27,2,6.15,6.15,0,0,1-3.17.76,5.56,5.56,0,0,1-4.34-1.88,7.33,7.33,0,0,1-1.79-4.93h14v-1.47q0-5-2.24-7.6a7.73,7.73,0,0,0-6.26-2.66,8.24,8.24,0,0,0-4.57,1.37,9.13,9.13,0,0,0-3.29,3.78,12.44,12.44,0,0,0-1.17,5.49v.65a10.27,10.27,0,0,0,2.63,7.38,9,9,0,0,0,6.84,2.76A8.66,8.66,0,0,0,284.12,489.79Zm-38.28-25.72H242.3V493.4h3.54V478.68a6.23,6.23,0,0,1,2-2.4,5,5,0,0,1,3-.92,4.11,4.11,0,0,1,3.12,1.07,4.72,4.72,0,0,1,1,3.3V493.4h3.53V479.75c0-4.93-2.24-7.39-6.6-7.39a7.5,7.5,0,0,0-6.11,2.88Z"/><path d="M411.48,389.39a16.54,16.54,0,0,1-11.92,5,16.11,16.11,0,0,1-11.91-5,19.23,19.23,0,0,1-4.87-13.19,18.79,18.79,0,0,1,4.87-13.2,15.44,15.44,0,0,1,11.91-5.25A15.84,15.84,0,0,1,411.48,363a18.87,18.87,0,0,1,5,13.2A19.32,19.32,0,0,1,411.48,389.39ZM430.06,351a6.87,6.87,0,0,0-6.79-6.92,7,7,0,0,0-6.67,5.64,29.17,29.17,0,0,0-17-5.64,29.48,29.48,0,0,0-21.77,9.61,32.34,32.34,0,0,0-8.72,22.55,32.81,32.81,0,0,0,8.72,22.55,29.75,29.75,0,0,0,21.77,9.35,29.06,29.06,0,0,0,17-5.51,7,7,0,0,0,6.67,5.51,6.84,6.84,0,0,0,6.79-6.79V351ZM318.85,408.1a7.13,7.13,0,0,0,7.17-7.05V389.78l7.05-7,18.83,22.81a6.91,6.91,0,0,0,9.87.89,7.1,7.1,0,0,0,1-10l-19.73-23.7,19.22-19.22a7,7,0,0,0,0-10,7.19,7.19,0,0,0-10,0L326,369.79V325.46a7.13,7.13,0,0,0-7.17-7,7,7,0,0,0-7.05,7v75.59A7,7,0,0,0,318.85,408.1Zm-65.34,0a7.13,7.13,0,0,0,7.17-7.05V389.78l7.05-7,18.83,22.81a6.91,6.91,0,0,0,9.87.89,7.1,7.1,0,0,0,1-10l-19.73-23.7,19.22-19.22a7,7,0,0,0,0-10,7.19,7.19,0,0,0-10,0l-26.27,26.26V325.46a7.13,7.13,0,0,0-7.17-7,7,7,0,0,0-7,7v75.59A7,7,0,0,0,253.51,408.1Zm-44.33-18.71a16.54,16.54,0,0,1-11.92,5,16.11,16.11,0,0,1-11.91-5,19.18,19.18,0,0,1-4.87-13.19,18.74,18.74,0,0,1,4.87-13.2,15.44,15.44,0,0,1,11.91-5.25A15.84,15.84,0,0,1,209.18,363a18.87,18.87,0,0,1,5,13.2A19.32,19.32,0,0,1,209.18,389.39ZM227.75,351A6.86,6.86,0,0,0,221,344a7,7,0,0,0-6.67,5.64,29.17,29.17,0,0,0-17-5.64,29.48,29.48,0,0,0-21.77,9.61,32.34,32.34,0,0,0-8.72,22.55,32.81,32.81,0,0,0,8.72,22.55,29.75,29.75,0,0,0,21.77,9.35,29.06,29.06,0,0,0,17-5.51A7,7,0,0,0,221,408.1a6.83,6.83,0,0,0,6.78-6.79V351Z"/><path d="M373.55,279.85C342.89,264,304.92,264.06,275.24,268l-.65.09-3.52.5c-4.18.61-8.18,1.28-11.94,2-1.43.27-2.83.55-4.2.83s-2.91.61-4.3.92c31.18-27.45,35.9-32.27,35.9-32.27,5.69-5.25,14.62-9.93,22.28-11,.87-.12,1.78-.24,2.73-.34,9.16-.95,23.49-.3,33.21,2.52l.07,0,.11,0a44.58,44.58,0,0,1,12.72,6.39c2.17,1.58,5.86,4.64,7.5,6-.11.39-.19.78-.27,1.18a35.77,35.77,0,0,0-.73,5.28v.06c0,.42,0,.84-.05,1.25v.8c0,.4,0,.84,0,1.33,0,.18,0,.41,0,.68v.18c0,.22,0,.44,0,.66s0,.38,0,.5v.13c0,.37.07.74.12,1.1v.11a5.58,5.58,0,0,0,.08.57c0,.36.1.72.17,1.07a7.85,7.85,0,0,0,.14.78c.08.41.16.81.25,1.19a10.59,10.59,0,0,0,.28,1.12c.09.36.19.69.28,1,.14.48.28.92.43,1.34.22.68.44,1.27.68,1.85.1.25.22.5.35.75l1.76,3.57C369.9,272.45,372.06,276.84,373.55,279.85Z"/><rect class="cls-1" x="282.5" y="233.47" width="0.01" height="0.01"/><polygon class="cls-1" points="282.53 233.46 282.52 233.47 282.52 233.46 282.53 233.46"/><path class="cls-2" d="M340.91,179.43c-1.84-3.71-3.69-7.49-5.46-11.11L334.33,166l-.89-1.79c-.37-.74-.71-1.47-1.07-2.17l-4.88-9.91c-6-12.12-9.43-22.39-1.94-33.57a17.75,17.75,0,0,1,2.39-2.92c.32-.33.65-.63,1-.92l.47-.39.17-.14.56-.43a29.5,29.5,0,0,1,7.3-3.7l-.23.05h-.06c-5.22,1.21-15.33,8.94-18.72,11.8L206.91,215.33c-4.78,4-1.5,11.5,4.75,11.5H267c13.43,0,26.43-3.54,36.61-12.32l32.7-28.2,5.6-4.83C341.6,180.81,341.26,180.12,340.91,179.43Z"/><path class="cls-2" d="M278.92,235.38s-58.13,50.72-64.35,54.14a65.86,65.86,0,0,1-11,5l-.6.19c-.43.14-.85.26-1.26.38l-.53.13c-.27.07-.54.15-.83.21l-.82.18a27.5,27.5,0,0,1-4.7.53h-1.69a29.74,29.74,0,0,1-18.64-52.33l.66-.55h0l2.36-1.7a37.44,37.44,0,0,1,19-6.17h82.37Z"/><path d="M342,223.1a2,2,0,0,1-.59-.1c-8.64-2.38-17.84-2.5-24.51-2.11l-1.11.07-.95.07c-1.38.11-2.62.24-3.67.36l-.9.11c-.45.06-.86.11-1.21.17l-.46.06-1.18.19h-.1l0,0c.27-.25,22.17-19,24.39-20.91l0,0a2.31,2.31,0,0,1,1.42-.56,2.43,2.43,0,0,1,1.95.78,2.78,2.78,0,0,1,.4.59c.49,1,1.17,2.39,1.95,4q.45.88.93,1.86c2,4.06,4.37,8.88,5.92,12A2.41,2.41,0,0,1,342,223.1Z"/><path d="M414.75,219.17l-.06,0c-.6-.25-1.22-.48-1.95-.73-.31-.11-.63-.22-1-.32l-.22-.06-.16-.05-.59-.17-.82-.2-.18-.05-.1,0h-.05l-.81-.2h-.05c-.82-.19-1.63-.33-2.43-.45a36.83,36.83,0,0,0-5.45-.41h-1.45c-.32,0-.76,0-1.28.07s-.89,0-1.3.1a37.78,37.78,0,0,0-16,5.47,35.38,35.38,0,0,0-3.36,2.39c-.3.23-.72.56-1.15,1a34.65,34.65,0,0,0-8.26,10.42l-.85-.66a59.81,59.81,0,0,1-17.13-20.92c-2.14-4.33-4-8.13-4-8.14l0-.07-.16-.33-.24-.51,0-.12a27,27,0,0,1-.14-20l.11-.27c.1-.28.22-.57.34-.84s.21-.51.34-.76.2-.45.32-.69l.22-.43c.29-.56.59-1.11.92-1.65s.66-1,1-1.56c.18-.27.37-.54.57-.79s.38-.52.59-.78.25-.31.41-.49l.36-.43.12-.14L351,176l.08-.08.07-.08v0c.22-.24.45-.48.67-.7a27.44,27.44,0,0,1,2.25-2.07c.17-.12.32-.26.48-.38l.49-.37c.32-.24.67-.47,1-.71l.56-.38,1.18-.73c.66-.37,1.34-.73,2.05-1.05a29.62,29.62,0,0,1,12.91-2.61c.38,0,.79,0,1.19,0,.65,0,1.28.1,1.92.17a6.5,6.5,0,0,1,.77.12l.83.14c.54.1,1.08.21,1.62.34a26.86,26.86,0,0,1,10.24,4.87c.25.19.51.4.76.63a24.26,24.26,0,0,1,3.91,4.37l0,.05c.31.44.58.88.85,1.33Z"/><path class="cls-3" d="M436.1,270.66c-.06.93-.17,1.84-.31,2.74s-.34,1.76-.57,2.63c-.12.43-.24.86-.37,1.28s-.21.65-.33,1-.17.48-.27.71-.11.28-.17.42-.17.43-.26.64-.29.63-.44.94c-.38.79-.79,1.55-1.24,2.29s-.94,1.47-1.44,2.16c-.26.35-.52.69-.8,1a12.81,12.81,0,0,1-.84,1c-.28.32-.57.64-.88.95s-.92.91-1.39,1.33-1,.88-1.57,1.29c-.24.19-.5.38-.77.57l-.23.15c-.33.24-.66.47-1,.68l-.09.06q-.51.33-1.05.63c-.36.21-.72.4-1.09.59l-.09.05c-.37.19-.74.37-1.12.54l-.71.31-.63.26-1.07.4a26.18,26.18,0,0,1-2.52.75l-.9.2-.22,0-.3.07-.93.16h-.07l-.44.06-.78.1-.44,0c-.44,0-.89.07-1.34.09s-.79,0-1.18,0q-.92,0-1.86-.06a21.84,21.84,0,0,1-2.3-.15H404a24.9,24.9,0,0,1-15.31-7l0,0a25,25,0,0,1-4.46-6.1c-.63-1.22-2.11-4.3-2.71-5.48-1.36-2.79-4.22-8.58-5.58-11.32l-1.83-3.74,0-.06a14.33,14.33,0,0,1-.51-1.38c-.23-.66-.42-1.31-.6-2a4.8,4.8,0,0,1-.15-.63c-.1-.39-.18-.77-.25-1.17a4.37,4.37,0,0,1-.09-.5,8.84,8.84,0,0,1-.14-.92l0-.17c0-.34-.09-.7-.12-1.06,0-.15,0-.3,0-.45,0-.3,0-.6-.06-.91,0-.11,0-.22,0-.33,0-.37,0-.74,0-1.13s0-1.06.06-1.6a29,29,0,0,1,.59-4.21,10.2,10.2,0,0,1,.27-1.09c.08-.36.19-.7.29-1a26.82,26.82,0,0,1,8.41-12.85,10,10,0,0,1,.79-.67,28.36,28.36,0,0,1,2.63-1.86,29.24,29.24,0,0,1,12.61-4.3c.35,0,.69-.06,1.05-.07a9.69,9.69,0,0,1,1.06-.06h1.08a28,28,0,0,1,4.28.33,25.63,25.63,0,0,1,2.56.49l.12,0,.36.09a3.59,3.59,0,0,1,.47.12,1.81,1.81,0,0,1,.31.09,2,2,0,0,1,.3.09l.12,0c.22.06.45.13.66.21.54.18,1.07.37,1.6.59a18.26,18.26,0,0,1,1.73.8,7.88,7.88,0,0,1,.76.4l.09.05c.24.13.47.27.7.42l.1,0a23.15,23.15,0,0,1,2.19,1.54l.63.51.06,0,.06.06.12.1c.31.25.62.54.91.81a3.82,3.82,0,0,1,.36.34l.5.51a28.58,28.58,0,0,1,4,5.51l2,4,.7,1.43,1.16,2.36,4.55,9.2A28.31,28.31,0,0,1,436.1,270.66Z"/><polygon class="cls-4" points="404.04 296.58 404.06 296.58 404.09 296.57 404.04 296.58"/><path class="cls-5" d="M340.91,179.43c-1.84-3.71-3.69-7.5-5.46-11.11L334.33,166l-.89-1.78c-.37-.74-.71-1.47-1.07-2.17-1.89-3.84-3.57-7.26-4.88-9.91-3.65-7.37-6.35-14-6.22-20.66a23.44,23.44,0,0,1,4.28-12.91,17.33,17.33,0,0,1,2.39-2.93c.13-.14.27-.27.41-.4s.47-.43.71-.62.34-.29.51-.42.37-.29.56-.43a29.53,29.53,0,0,1,7.3-3.71l-.29.06-.08,0c-5.25,1.27-15.27,9-18.64,11.78l-20.16,16.88L335.52,187l.8-.7.13-.11,5.47-4.72C341.6,180.81,341.26,180.12,340.91,179.43Z"/><path class="cls-2" d="M395.07,179.2l-.18-.3c-.27-.44-.54-.88-.85-1.32l0-.05a24.32,24.32,0,0,0-3.91-4.38c-.25-.23-.51-.43-.76-.62-.43-.36-.87-.69-1.32-1-.22-.15-.46-.32-.7-.45s-.61-.38-.9-.56a27.14,27.14,0,0,0-7.32-2.87q-.81-.19-1.62-.33l-.84-.14c-.34-.06-.68-.1-1-.15-.54-.06-1.09-.12-1.65-.14-.4,0-.81,0-1.19,0a29.48,29.48,0,0,0-12.91,2.61,17.55,17.55,0,0,0-1.93,1L357,171l-.89.6-1,.72c-.16.1-.32.24-.49.37s-.31.26-.48.37a27.44,27.44,0,0,0-2.25,2.08c-.22.22-.45.46-.67.7v0c-.44.47-.86,1-1.25,1.46-.21.26-.4.52-.59.78s-.39.52-.57.78c-.36.51-.71,1-1,1.57s-.63,1.09-.92,1.65l-.22.43c-.12.24-.23.47-.32.69s-.24.51-.34.76-.24.55-.34.83l-.11.27a27,27,0,0,0,.14,20.06h0l0-.08-.05-.09-.31-.61-.06-.11-.06-.14-1.24-2.52c-.14-.27-.27-.52-.39-.79l-.42-.84-.27-.54a1.68,1.68,0,0,1-.15-.3l-.74-1.53-.13-.26-.06-.14-.08-.12,0-.07-.07-.17-.36-.72-.08-.15-.21-.43-.76-1.53-.1-.21-.35-.7-.39-.8v0l-.31-.61-.29-.58-1.08-2.21-1-2c-.32-.67-.66-1.36-1-2.05-1.84-3.71-3.69-7.49-5.46-11.11L329,171.39l-.89-1.79c-.37-.74-.71-1.47-1.07-2.16-1.88-3.85-3.57-7.26-4.88-9.92a37.72,37.72,0,0,1,2.4-37.73,23.63,23.63,0,0,1,11.74-9.36l0,0A36.41,36.41,0,0,1,342.2,109c8.86-1.3,17.66,1,22.3,8.38l2,4.09,2.61,5.25,1.65,3.33,1.7,3.43.88,1.78,1.81,3.7c.32.62.63,1.24.95,1.89l1.91,3.86c2.26,4.56,4.57,9.25,6.83,13.79.48,1,.95,1.94,1.43,2.9s.94,1.9,1.4,2.85l1,2.08c.3.59.58,1.19.88,1.77l0,0,.75,1.52L391,171l.94,1.9.45.92c.15.31.29.61.44.91s.21.4.3.59.19.4.28.59.29.58.43.86l.42.84c.13.28.27.55.4.82s.26.52.38.78"/><path class="cls-6" d="M357.48,111c-1-.08-2-.12-3-.11l-1.46,0-1,.07h-.08l-.67.06c-.48,0-1,.1-1.44.18l-.5.07-.83.14h-.06a23.64,23.64,0,0,0-6.56,2.51c-.21.11-.4.23-.6.35s-.38.22-.56.34-.54.35-.79.53a5.48,5.48,0,0,0-.46.34,23,23,0,0,0-3.92,3.62A37.68,37.68,0,0,0,328,156.22c.93,2.81,2.14,6.42,3.48,10.48.26.74.5,1.51.77,2.3.2.61.42,1.25.63,1.88.27.79.53,1.6.8,2.42,1.27,3.82,2.58,7.83,3.9,11.75.18.54.37,1.09.54,1.62.07.19.13.37.19.55l.71,2.14.07.21,0,0,.68,2.1.21.61.22.64v0l.28.83.25.74.07.23.54,1.62.15.46,0,.12-.08-.17-.35-.72-.08-.15-.21-.43-.76-1.54-.1-.21-.35-.7-.39-.79v0l-.31-.61-.29-.58-1-2,0,0-.1-.2-1-2c-.08-.17-.17-.34-.26-.52-.23-.5-.49-1-.75-1.53-1.84-3.71-3.69-7.5-5.46-11.11L329,171.38l-.89-1.78c-.37-.74-.71-1.47-1.07-2.17-1.89-3.84-3.57-7.26-4.88-9.91a37.72,37.72,0,0,1,2.4-37.73,23.63,23.63,0,0,1,3.39-4.12c.13-.14.27-.27.41-.4l.71-.62q.26-.23.51-.42c.18-.15.37-.29.56-.43a23.43,23.43,0,0,1,6.15-3.38l.05,0,.81-.25.48-.14c.47-.14.94-.26,1.41-.37l.65-.15h.08c.34-.07.67-.15,1-.21s1-.18,1.43-.24a25.78,25.78,0,0,1,15.28,2"/><path class="cls-7" d="M409.65,225.8c-.17,0-.35,0-.52-.06l-.79-.07-.28,0a7.4,7.4,0,0,0-1.06,0c-.36,0-.7,0-1.05,0A28.27,28.27,0,0,0,393,229a27.72,27.72,0,0,0-2.8,1.73,10.49,10.49,0,0,0-.85.64,28.81,28.81,0,0,0-9.68,12.86c-.13.36-.28.71-.39,1.08a11.72,11.72,0,0,0-.38,1.14,33.43,33.43,0,0,0-1,4.42c-.08.57-.15,1.14-.22,1.69s-.08.81-.09,1.21c0,.12,0,.23,0,.35,0,.33,0,.65,0,1,0,.16,0,.33,0,.49,0,.38,0,.77,0,1.13v.19c0,.33,0,.68,0,1a3.15,3.15,0,0,0,0,.53c0,.43.06.85.12,1.28a5.52,5.52,0,0,0,.09.68c.11.72.24,1.43.4,2.15a12.79,12.79,0,0,0,.37,1.51l0,.07,1.45,4.16c1.07,3,3.33,9.47,4.41,12.56.48,1.31,1.64,4.74,2.13,6.08l.18.45a25,25,0,0,1-2.51-3.89c-.63-1.22-2.11-4.3-2.71-5.48-1.36-2.79-4.22-8.58-5.58-11.32l-1.83-3.74,0-.06a14.33,14.33,0,0,1-.51-1.38c-.23-.66-.42-1.31-.6-2a4.8,4.8,0,0,1-.15-.63c-.1-.39-.18-.77-.25-1.17a4.37,4.37,0,0,1-.09-.5,8.84,8.84,0,0,1-.14-.92l0-.17c0-.34-.09-.7-.12-1.06,0-.15,0-.3,0-.45,0-.3,0-.6-.06-.91,0-.11,0-.22,0-.33,0-.37,0-.74,0-1.13s0-1.06.06-1.6a29,29,0,0,1,.59-4.21,10.2,10.2,0,0,1,.27-1.09c.08-.36.19-.7.29-1a26.82,26.82,0,0,1,8.41-12.85,10,10,0,0,1,.79-.67,28.36,28.36,0,0,1,2.63-1.86,29.24,29.24,0,0,1,12.61-4.3c.35,0,.69-.06,1.05-.07a9.69,9.69,0,0,1,1.06-.06h1.08a28,28,0,0,1,4.28.33,25.63,25.63,0,0,1,2.56.49l.12,0,.36.09a3.59,3.59,0,0,1,.47.12,1.81,1.81,0,0,1,.31.09,2,2,0,0,1,.3.09l.12,0Z"/><path class="cls-8" d="M344.45,201.56a23.64,23.64,0,0,1-.56-3l0,.08a8.84,8.84,0,0,0,.14.92,4.37,4.37,0,0,0,.09.5c.07.4.15.79.25,1.18C344.4,201.34,344.43,201.45,344.45,201.56Z"/><path class="cls-9" d="M345.14,203.83c-.23-.66-.44-1.3-.6-2C344.72,202.53,344.91,203.17,345.14,203.83Z"/><path class="cls-10" d="M335.18,201.21l-18.24,19.68-1.11.07-.95.07c-1.38.11-2.62.24-3.67.36l-.9.11c-.45.06-.86.11-1.21.17l-.46.06-1.18.19h-.1l0,0c.27-.25,22.17-19,24.39-20.91l0,0a2.31,2.31,0,0,1,1.42-.56A2.43,2.43,0,0,1,335.18,201.21Z"/><path class="cls-10" d="M385.26,169.93a31.78,31.78,0,0,0-13.76,1.4c-.8.27-1.57.57-2.31.89l-1.35.65c-.2.12-.42.23-.64.35l-1.14.65-.56.34c-.19.11-.36.24-.56.35a27.18,27.18,0,0,0-2.63,2c-.26.21-.54.44-.8.68v0l-.09.07-.09.08-.25.23-.15.14-.43.42c-.19.17-.36.34-.49.48s-.49.51-.72.77-.47.51-.7.78c-.43.49-.86,1-1.25,1.55s-.81,1.09-1.18,1.66c-.09.13-.2.31-.28.44a74,74,0,0,0-.87,1.47c-.16.28-.32.58-.46.85l-.15.28a29.11,29.11,0,0,0-2.08,21.47l0,.13.2.56.13.37,0,.08s1.57,4.29,3.37,9.16a64.16,64.16,0,0,0,6.72,13.21,59.78,59.78,0,0,1-12.67-17.11c-2.14-4.33-4-8.13-4-8.14l0-.07-.16-.33-.24-.51,0-.12a27,27,0,0,1-.14-20l.11-.27c.1-.28.22-.57.34-.84s.21-.51.34-.76.2-.45.32-.69l.22-.43c.29-.56.59-1.11.92-1.65s.66-1,1-1.56c.18-.27.37-.54.57-.79s.38-.52.59-.78.25-.31.41-.49l.36-.43.12-.14L351,176l.08-.08.07-.08v0c.22-.24.45-.48.67-.7a27.44,27.44,0,0,1,2.25-2.07c.17-.12.32-.26.48-.38l.49-.37c.32-.24.67-.47,1-.71l.56-.38,1.18-.73c.66-.37,1.34-.73,2.05-1.05a29.62,29.62,0,0,1,12.91-2.61c.38,0,.79,0,1.19,0,.65,0,1.28.1,1.92.17a6.5,6.5,0,0,1,.77.12l.83.14c.54.1,1.08.21,1.62.34A28.78,28.78,0,0,1,385.26,169.93Z"/><path class="cls-11" d="M346.2,206.34l-.08-.16Z"/><path class="cls-12" d="M349.86,213.77l-1-2C349.17,212.38,349.52,213.07,349.86,213.77Z"/><path class="cls-13" d="M353.43,173.65l-.17.16-.44.38C353,174,353.22,173.82,353.43,173.65Z"/><path class="cls-14" d="M370.52,166.88l-.18,0-.53,0C370.05,166.9,370.28,166.88,370.52,166.88Z"/><path class="cls-15" d="M343.67,193.8c0,.35,0,.71,0,1.07v-.28Z"/><path class="cls-16" d="M345.68,205.26l0,0a11.65,11.65,0,0,1-.42-1.12c.13.35.26.7.41,1Z"/><path class="cls-10" d="M311.54,228.64,275.24,268l-.65.09-3.52.5c-4.18.61-8.18,1.28-11.94,2-1.43.27-2.83.55-4.2.83s-2.91.61-4.3.92c31.18-27.45,35.9-32.27,35.9-32.27,5.69-5.25,14.62-9.93,22.28-11C309.68,228.86,310.59,228.74,311.54,228.64Z"/><path class="cls-17" d="M326.91,118.29a36.49,36.49,0,0,0-4.36,38.18l4.78,10.3c.36.73.69,1.49,1.05,2.26.29.59.58,1.22.88,1.85l1.09,2.38c1.74,3.75,3.55,7.68,5.35,11.55l.74,1.58c.09.19.18.37.25.54l1,2.11-.1-.19-1-2c-.08-.17-.17-.34-.26-.52-.23-.5-.49-1-.75-1.52-1.84-3.72-3.69-7.5-5.46-11.11L329,171.38l-.89-1.79c-.37-.73-.71-1.46-1.07-2.16-1.89-3.85-3.57-7.26-4.88-9.91a37.74,37.74,0,0,1,2.4-37.74,23.93,23.93,0,0,1,3.39-4.11c.13-.14.27-.27.41-.4s.47-.43.71-.63.34-.29.51-.42.37-.29.56-.43a23.69,23.69,0,0,1,6.15-3.37l.05,0,.81-.25.48-.14c.47-.14.94-.26,1.41-.37l.42-.1a26.2,26.2,0,0,0-6.24,2.95l-.63.41-.57.4c-.26.19-.53.39-.79.6s-.31.25-.46.38a25.74,25.74,0,0,0-3.85,4"/><path class="cls-18" d="M357.39,111l.08,0h0l-.09,0"/><path class="cls-19" d="M357,110.76h-.17l-.73,0c-.42,0-.85,0-1.28.09.9,0,1.79,0,2.67.11l-.08,0-.41-.2"/><polyline class="cls-20" points="337.74 189.19 337.77 189.25 337.79 189.29 337.77 189.24 337.74 189.19"/><polyline class="cls-21" points="337.71 189.12 337.74 189.19 337.77 189.24 337.71 189.12"/><path class="cls-22" d="M400.9,224.46h.31a5,5,0,0,0-.77,0c-.37,0-.71,0-1.07.06a29.91,29.91,0,0,0-13,4.27,29.48,29.48,0,0,0-2.7,1.87,10.56,10.56,0,0,0-.82.68,27.38,27.38,0,0,0-8.74,13.06c-.11.35-.23.69-.31,1.06a11.34,11.34,0,0,0-.29,1.11,30.24,30.24,0,0,0-.65,4.31c0,.55,0,1.1-.08,1.63s0,.78,0,1.16c0,.11,0,.22,0,.34,0,.31,0,.62.05.93,0,.15,0,.31,0,.46,0,.37.07.74.11,1.08l0,.18a7.09,7.09,0,0,0,.13.94,4.17,4.17,0,0,0,.09.51q.09.6.24,1.2a4.72,4.72,0,0,0,.15.65c.17.68.36,1.35.59,2a14.11,14.11,0,0,0,.51,1.42l0,.06,1.83,3.85c1.36,2.81,4.22,8.77,5.59,11.64.6,1.22,2.08,4.39,2.71,5.64.08.16.17.32.26.48-.35-.54-.67-1.1-1-1.68-.63-1.22-2.11-4.3-2.71-5.48-1.36-2.79-4.22-8.58-5.58-11.32l-1.83-3.74,0-.06a14.33,14.33,0,0,1-.51-1.38c-.23-.66-.42-1.31-.6-2a4.8,4.8,0,0,1-.15-.63c-.1-.39-.18-.77-.25-1.17a4.37,4.37,0,0,1-.09-.5,8.84,8.84,0,0,1-.14-.92l0-.17c0-.34-.09-.7-.12-1.06,0-.15,0-.3,0-.45,0-.3,0-.6-.06-.91,0-.11,0-.22,0-.33,0-.37,0-.74,0-1.13s0-1.06.06-1.6a29,29,0,0,1,.59-4.21,10.2,10.2,0,0,1,.27-1.09c.08-.36.19-.7.29-1a26.82,26.82,0,0,1,8.41-12.85,10,10,0,0,1,.79-.67,28.36,28.36,0,0,1,2.63-1.86,29.24,29.24,0,0,1,12.61-4.3c.35,0,.69-.06,1.05-.07a9.69,9.69,0,0,1,1.06-.06h1.08Z"/><path class="cls-6" d="M211,291.41a60.82,60.82,0,0,1-7.43,3.12l-.61.19c-.42.14-.84.26-1.25.38l-.53.14-.82.2-.83.18a28.55,28.55,0,0,1-4.7.54h-1.69a29.75,29.75,0,0,1-18.63-52.34l.64-.56h0l2.37-1.69a37.47,37.47,0,0,1,19-6.17h8a35.47,35.47,0,0,0-18,5.84l-2.23,1.6h0l-.62.52a28.14,28.14,0,0,0,17.64,49.51h1.58a26.61,26.61,0,0,0,4.46-.51l.77-.17L209,292c.18-.05.34-.1.51-.13.38-.11.79-.22,1.19-.35Z"/><path class="cls-23" d="M175.06,287.89a30.23,30.23,0,0,0,12.78,7.65,29.74,29.74,0,0,1-13.33-51.73l.64-.56h0l2.37-1.69a37.68,37.68,0,0,1,13-5.43,38.52,38.52,0,0,0-10.6,4.88l-2.41,1.73h0l-.68.57A30.47,30.47,0,0,0,175.06,287.89Z"/><path class="cls-24" d="M332.66,200.53l-21.76,20.9c-2.24.27-3.54.51-3.54.51l0,0c.27-.25,22.17-19,24.39-20.91A2.35,2.35,0,0,1,332.66,200.53Z"/><path class="cls-24" d="M295.67,233.61,256.74,271q-3.19.64-6.11,1.29c31.18-27.45,35.9-32.27,35.9-32.27A45.67,45.67,0,0,1,295.67,233.61Z"/><path class="cls-6" d="M318.42,122,206.91,215.33c-4.78,4-1.5,11.5,4.75,11.5h42.07l-26.17-.1c-6.19,0-9.22-5.55-4.49-10l103.29-99.26a16.15,16.15,0,0,1,1.58-1.8c.32-.33.65-.63,1-.92l.47-.39.17-.14.56-.43.2-.14.82-.79A105.13,105.13,0,0,0,318.42,122Z"/><path class="cls-23" d="M209.38,215.9l77.56-67.59-80,67c-4.35,3.65-2,10.16,3.11,11.32A6.88,6.88,0,0,1,209.38,215.9Z"/></svg>