<?xml version="1.0" encoding="UTF-8"?><svg id="Layer_1" xmlns="http://www.w3.org/2000/svg" viewBox="0 0 630 300"><defs><style>.cls-1{fill:#fff;stroke-width:0px;}</style></defs><path class="cls-1" d="m148.69,87.82h-17.75c-6.11,0-11.86,2.38-16.18,6.71-4.32,4.33-6.7,10.09-6.7,16.23s2.38,11.9,6.7,16.22c4.32,4.34,10.06,6.72,16.18,6.72h17.75c2.83,0,5.13-2.3,5.13-5.13v-35.62c0-2.83-2.3-5.13-5.13-5.13Z"/><path class="cls-1" d="m200.69,98.44c-6.46-6.47-15.02-10.23-24.11-10.59-.05-.01-.1-.01-.15,0-.44-.02-.88-.03-1.32-.03h-11.07c-2.84,0-5.15,2.31-5.15,5.15v12c0,2.83,2.31,5.14,5.15,5.14h3.66c3.73,0,7.23,1.46,9.86,4.1,2.63,2.63,4.08,6.14,4.08,9.88,0,1.91-.37,3.74-1.1,5.43-.7,1.66-1.7,3.15-2.98,4.44-2.62,2.64-6.12,4.1-9.86,4.1h-3.66c-2.84,0-5.15,2.31-5.15,5.15v12c0,2.84,2.31,5.15,5.15,5.15h11.07c.44,0,.87,0,1.31-.03l.07.05.11-.05c9.08-.36,17.63-4.12,24.08-10.59,6.83-6.86,10.59-15.97,10.59-25.65s-3.76-18.79-10.59-25.65Z"/><rect class="cls-1" x="131.6" y="189.89" width="22.22" height="22.22" rx="5.13" ry="5.13"/><rect class="cls-1" x="118.64" y="189.87" width="11.37" height="22.25" rx="4.83" ry="4.83"/><path class="cls-1" d="m164.02,189.89h11.96c2.83,0,5.13,2.3,5.13,5.13v11.96c0,2.83-2.3,5.13-5.13,5.13h-11.96c-2.83,0-5.13-2.3-5.13-5.13v-11.96c0-2.83,2.3-5.13,5.13-5.13Z"/><rect class="cls-1" x="182.42" y="189.87" width="11.37" height="22.25" rx="4.83" ry="4.83"/><path class="cls-1" d="m136.74,138.08h11.96c2.83,0,5.13,2.3,5.13,5.13v11.96c0,2.83-2.3,5.13-5.13,5.13h-11.96c-2.83,0-5.13-2.3-5.13-5.13v-11.96c0-2.83,2.3-5.13,5.13-5.13Z"/><path class="cls-1" d="m112.91,138.08h11.96c2.83,0,5.13,2.3,5.13,5.13v11.96c0,2.83-2.3,5.13-5.13,5.13h-11.96c-2.83,0-5.13-2.3-5.13-5.13v-11.96c0-2.83,2.3-5.13,5.13-5.13Z"/><path class="cls-1" d="m112.91,164.01h11.96c2.83,0,5.13,2.3,5.13,5.13v11.96c0,2.83-2.3,5.13-5.13,5.13h-11.96c-2.83,0-5.13-2.3-5.13-5.13v-11.96c0-2.83,2.3-5.13,5.13-5.13Z"/><rect class="cls-1" x="94.81" y="164" width="11.37" height="22.25" rx="4.83" ry="4.83"/><path class="cls-1" d="m136.74,164.01h11.96c2.83,0,5.13,2.3,5.13,5.13v11.96c0,2.83-2.3,5.13-5.13,5.13h-11.96c-2.83,0-5.13-2.3-5.13-5.13v-11.96c0-2.83,2.3-5.13,5.13-5.13Z"/><rect class="cls-1" x="206.51" y="164.07" width="11.37" height="22.25" rx="4.83" ry="4.83"/><path class="cls-1" d="m164.02,164.01h11.96c2.83,0,5.13,2.3,5.13,5.13v11.96c0,2.83-2.3,5.13-5.13,5.13h-11.96c-2.83,0-5.13-2.3-5.13-5.13v-11.96c0-2.83,2.3-5.13,5.13-5.13Z"/><path class="cls-1" d="m187.85,164.01h11.96c2.83,0,5.13,2.3,5.13,5.13v11.96c0,2.83-2.3,5.13-5.13,5.13h-11.96c-2.83,0-5.13-2.3-5.13-5.13v-11.96c0-2.83,2.3-5.13,5.13-5.13Z"/><path class="cls-1" d="m252.54,94.83h30.35c13.83,0,23.06,8.36,23.06,20.8s-9.22,21.13-23.06,21.13h-20.7v31.63h-9.65v-73.56Zm30.35,33.35c8.04,0,13.4-5.04,13.4-12.55s-5.36-12.22-13.4-12.22h-20.7v24.77h20.7Z"/><path class="cls-1" d="m306.15,141.59c0-16.73,10.72-27.88,26.92-27.88s26.92,11.47,26.92,28.74l-.86.86h-44.29c.43,11.15,7.72,18.66,18.23,18.66,7.94,0,14.8-4.72,17.16-11.8h8.58c-3.43,11.58-13.73,19.3-25.74,19.3-16.19,0-26.92-11.15-26.92-27.88Zm44.72-5.79c-2.04-9.33-8.47-14.58-17.8-14.58s-15.76,5.25-17.8,14.58h35.6Z"/><path class="cls-1" d="m369.2,94.83h8.58v43.22l23.16-23.27h12.01l-22.41,22.2,25.31,31.42h-10.94l-20.48-25.41-6.65,6.54v18.87h-8.58v-73.56Z"/><path class="cls-1" d="m422.71,94.83h8.58v43.22l23.16-23.27h12.01l-22.41,22.2,25.31,31.42h-10.94l-20.48-25.41-6.65,6.54v18.87h-8.58v-73.56Z"/><path class="cls-1" d="m469.36,141.59c0-16.73,10.72-27.88,26.92-27.88s26.92,11.15,26.92,27.88-10.72,27.88-26.92,27.88-26.92-11.15-26.92-27.88Zm45.25,0c0-12.22-7.29-20.37-18.34-20.37s-18.34,8.15-18.34,20.37,7.29,20.37,18.34,20.37,18.34-8.15,18.34-20.37Z"/><path class="cls-1" d="m251.63,199.99h2.39c.06,2.1,1.88,3.5,4.55,3.5s4.33-1.02,4.33-2.54c0-1.34-.89-1.91-4.49-2.74-4.39-.99-5.76-2.04-5.76-4.45,0-2.74,2.35-4.58,5.92-4.58,2.86,0,5.34,1.62,6.2,4.04l-2.32.57c-.48-1.43-2.04-2.39-3.88-2.39-2.04,0-3.37.86-3.37,2.16,0,1.08.89,1.65,3.75,2.35,4.9,1.02,6.46,2.2,6.46,4.9,0,2.93-2.74,4.9-6.84,4.9s-6.87-2.29-6.94-5.73Z"/><path class="cls-1" d="m267.7,197.45c0-4.96,3.18-8.27,7.99-8.27s7.99,3.4,7.99,8.53l-.25.25h-13.14c.13,3.31,2.29,5.54,5.41,5.54,2.35,0,4.39-1.4,5.09-3.5h2.55c-1.02,3.44-4.07,5.73-7.64,5.73-4.8,0-7.99-3.31-7.99-8.27Zm13.27-1.72c-.6-2.77-2.51-4.33-5.28-4.33s-4.68,1.56-5.28,4.33h10.56Z"/><path class="cls-1" d="m286.73,189.49h2.55v2.2c1.3-1.72,2.77-2.51,4.55-2.51.48,0,.99.13,1.3.32v1.91h-1.08c-2.86,0-4.77,1.88-4.77,4.71v9.29h-2.55v-15.91Z"/><path class="cls-1" d="m297.68,183.58h2.55v3.5h-2.55v-3.5Zm0,5.92h2.55v15.91h-2.55v-15.91Z"/><path class="cls-1" d="m303.28,197.45c0-4.96,3.12-8.27,7.76-8.27,2.16,0,4.42,1.21,5.66,2.99v-2.67h2.55v15.91h-2.55v-2.67c-1.24,1.78-3.5,2.99-5.66,2.99-4.64,0-7.76-3.31-7.76-8.27Zm13.43,0c0-3.63-2.16-6.04-5.41-6.04s-5.47,2.42-5.47,6.04,2.2,6.04,5.47,6.04,5.41-2.42,5.41-6.04Z"/><path class="cls-1" d="m323.07,183.58h2.55v21.83h-2.55v-21.83Z"/><path class="cls-1" d="m330.07,183.58h2.55v3.5h-2.55v-3.5Zm0,5.92h2.55v15.91h-2.55v-15.91Z"/><path class="cls-1" d="m335.48,203.71l10.02-11.99h-10.02v-2.23h13.49v1.69l-10.02,11.99h10.02v2.23h-13.49v-1.69Z"/><path class="cls-1" d="m350.44,197.45c0-4.96,3.12-8.27,7.76-8.27,2.16,0,4.42,1.21,5.66,2.99v-2.67h2.55v15.91h-2.55v-2.67c-1.24,1.78-3.5,2.99-5.66,2.99-4.65,0-7.76-3.31-7.76-8.27Zm13.43,0c0-3.63-2.16-6.04-5.41-6.04s-5.47,2.42-5.47,6.04,2.2,6.04,5.47,6.04,5.41-2.42,5.41-6.04Z"/><path class="cls-1" d="m371.18,201.33v-9.61h-2.55v-2.23h2.55v-5.92h2.55v5.92h4.65v2.23h-4.65v9.61c0,1.3.83,2.16,2.04,2.16h2.77v1.91c-.8.19-1.85.32-2.61.32-2.83,0-4.74-1.75-4.74-4.39Z"/><path class="cls-1" d="m382.03,183.58h2.55v3.5h-2.55v-3.5Zm0,5.92h2.55v15.91h-2.55v-15.91Z"/><path class="cls-1" d="m387.64,197.45c0-4.96,3.18-8.27,7.99-8.27s7.99,3.31,7.99,8.27-3.18,8.27-7.99,8.27-7.99-3.31-7.99-8.27Zm13.43,0c0-3.63-2.16-6.04-5.44-6.04s-5.44,2.42-5.44,6.04,2.16,6.04,5.44,6.04,5.44-2.42,5.44-6.04Z"/><path class="cls-1" d="m406.35,189.49h2.55v2.04c1.11-1.4,3.12-2.35,4.96-2.35,3.98,0,6.62,2.54,6.62,6.36v9.86h-2.54v-9.42c0-2.74-1.81-4.58-4.52-4.58s-4.52,1.84-4.52,4.58v9.42h-2.55v-15.91Z"/><path class="cls-1" d="m431.87,183.58h2.55v7.95c1.11-1.4,3.12-2.35,4.96-2.35,3.98,0,6.62,2.54,6.62,6.36v9.86h-2.54v-9.42c0-2.74-1.81-4.58-4.52-4.58s-4.52,1.84-4.52,4.58v9.42h-2.55v-21.83Z"/><path class="cls-1" d="m448.73,197.45c0-4.96,3.18-8.27,7.99-8.27s7.99,3.4,7.99,8.53l-.25.25h-13.14c.13,3.31,2.29,5.54,5.41,5.54,2.35,0,4.39-1.4,5.09-3.5h2.55c-1.02,3.44-4.07,5.73-7.64,5.73-4.8,0-7.99-3.31-7.99-8.27Zm13.27-1.72c-.6-2.77-2.51-4.33-5.28-4.33s-4.68,1.56-5.28,4.33h10.56Z"/><path class="cls-1" d="m467.76,183.58h2.55v21.83h-2.55v-21.83Z"/><path class="cls-1" d="m474.76,189.49h2.55v2.7c1.24-1.81,3.56-3.02,5.82-3.02,4.71,0,7.86,3.31,7.86,8.27s-3.15,8.27-7.86,8.27c-2.26,0-4.58-1.21-5.82-3.02v8.62h-2.55v-21.83Zm13.68,7.95c0-3.63-2.23-6.04-5.57-6.04s-5.57,2.42-5.57,6.04,2.23,6.04,5.57,6.04,5.57-2.42,5.57-6.04Z"/><path class="cls-1" d="m493.28,197.45c0-4.96,3.18-8.27,7.99-8.27s7.99,3.4,7.99,8.53l-.25.25h-13.14c.13,3.31,2.29,5.54,5.41,5.54,2.35,0,4.39-1.4,5.09-3.5h2.55c-1.02,3.44-4.07,5.73-7.64,5.73-4.8,0-7.99-3.31-7.99-8.27Zm13.27-1.72c-.6-2.77-2.51-4.33-5.28-4.33s-4.68,1.56-5.28,4.33h10.56Z"/><path class="cls-1" d="m512.31,189.49h2.55v2.2c1.3-1.72,2.77-2.51,4.55-2.51.48,0,.99.13,1.3.32v1.91h-1.08c-2.86,0-4.77,1.88-4.77,4.71v9.29h-2.55v-15.91Z"/></svg>