<?xml version="1.0" encoding="UTF-8"?><svg id="Layer_1" xmlns="http://www.w3.org/2000/svg" viewBox="0 0 200 200"><defs><style>.cls-1{fill:#111;stroke-width:0px;}</style></defs><path class="cls-1" d="m92.35,37.85h-17.75c-6.11,0-11.86,2.38-16.18,6.71-4.32,4.33-6.7,10.09-6.7,16.23s2.38,11.89,6.7,16.22c4.31,4.33,10.06,6.72,16.18,6.72h17.75c2.83,0,5.13-2.3,5.13-5.13v-35.62c0-2.83-2.3-5.13-5.13-5.13Z"/><path class="cls-1" d="m80.39,139.92h11.96c2.83,0,5.13,2.3,5.13,5.13v11.96c0,2.83-2.3,5.13-5.13,5.13h-11.96c-2.83,0-5.13-2.3-5.13-5.13v-11.96c0-2.83,2.3-5.13,5.13-5.13Z"/><rect class="cls-1" x="62.29" y="139.9" width="11.37" height="22.25" rx="4.83" ry="4.83"/><rect class="cls-1" x="51.43" y="114.04" width="22.22" height="22.22" rx="5.13" ry="5.13"/><path class="cls-1" d="m43.29,114.03h1.72c2.66,0,4.83,2.16,4.83,4.83v12.6c0,2.66-2.16,4.83-4.83,4.83h-1.72c-2.66,0-4.83-2.16-4.83-4.83v-12.6c0-2.66,2.16-4.83,4.83-4.83Z"/><path class="cls-1" d="m80.39,88.11h11.96c2.83,0,5.13,2.3,5.13,5.13v11.96c0,2.83-2.3,5.13-5.13,5.13h-11.96c-2.83,0-5.13-2.3-5.13-5.13v-11.96c0-2.83,2.3-5.13,5.13-5.13Z"/><path class="cls-1" d="m56.57,88.11h11.96c2.83,0,5.13,2.3,5.13,5.13v11.96c0,2.83-2.3,5.13-5.13,5.13h-11.96c-2.83,0-5.13-2.3-5.13-5.13v-11.96c0-2.83,2.3-5.13,5.13-5.13Z"/><path class="cls-1" d="m80.39,114.04h11.96c2.83,0,5.13,2.3,5.13,5.13v11.96c0,2.83-2.3,5.13-5.13,5.13h-11.96c-2.83,0-5.13-2.3-5.13-5.13v-11.96c0-2.83,2.3-5.13,5.13-5.13Z"/><path class="cls-1" d="m107.7,110.39h11.07c.42,0,.83,0,1.25-.03h.06s.07.06.07.06l.12-.07c9.07-.36,17.62-4.12,24.08-10.59,6.83-6.86,10.59-15.97,10.59-25.65s-3.76-18.79-10.59-25.65c-6.46-6.47-15.02-10.23-24.11-10.59-.05-.01-.1-.01-.14,0-.44-.02-.88-.03-1.32-.03h-11.07c-2.84,0-5.15,2.31-5.15,5.15v12c0,2.83,2.31,5.14,5.15,5.14h3.66c3.73,0,7.23,1.46,9.86,4.1,2.63,2.63,4.08,6.14,4.08,9.88,0,1.91-.37,3.74-1.1,5.43-.7,1.66-1.7,3.15-2.98,4.44-2.62,2.64-6.12,4.1-9.86,4.1h-3.66c-2.84,0-5.15,2.31-5.15,5.15v12c0,2.84,2.31,5.15,5.15,5.15Z"/><path class="cls-1" d="m107.68,139.92h11.96c2.83,0,5.13,2.3,5.13,5.13v11.96c0,2.83-2.3,5.13-5.13,5.13h-11.96c-2.83,0-5.13-2.3-5.13-5.13v-11.96c0-2.83,2.3-5.13,5.13-5.13Z"/><path class="cls-1" d="m154.99,114.09h1.72c2.66,0,4.83,2.16,4.83,4.83v12.6c0,2.66-2.16,4.83-4.83,4.83h-1.72c-2.66,0-4.83-2.16-4.83-4.83v-12.6c0-2.66,2.16-4.83,4.83-4.83Z"/><rect class="cls-1" x="126.08" y="139.9" width="11.37" height="22.25" rx="4.83" ry="4.83"/><path class="cls-1" d="m107.68,114.04h11.96c2.83,0,5.13,2.3,5.13,5.13v11.96c0,2.83-2.3,5.13-5.13,5.13h-11.96c-2.83,0-5.13-2.3-5.13-5.13v-11.96c0-2.83,2.3-5.13,5.13-5.13Z"/><path class="cls-1" d="m131.51,114.04h11.96c2.83,0,5.13,2.3,5.13,5.13v11.96c0,2.83-2.3,5.13-5.13,5.13h-11.96c-2.83,0-5.13-2.3-5.13-5.13v-11.96c0-2.83,2.3-5.13,5.13-5.13Z"/></svg>